<?xml version="1.0" encoding="UTF-8"?>
<svg xmlns="http://www.w3.org/2000/svg" xmlns:xlink="http://www.w3.org/1999/xlink" version="1.1" viewBox="0 0 1080 1080">
  <!-- Generator: Adobe Illustrator 30.2.1, SVG Export Plug-In . SVG Version: 2.1.1 Build 1)  -->
  <defs>
    <style>
      .st0 {
        fill: #6f01ff;
      }

      .st1 {
        isolation: isolate;
      }

      .st2 {
        fill: url(#radial-gradient);
      }

      .st2, .st3 {
        mix-blend-mode: color-dodge;
      }

      .st4 {
        fill: #fff;
      }

      .st5 {
        fill: #fefaf4;
      }

      .st3 {
        fill: url(#radial-gradient1);
      }
    </style>
    <radialGradient id="radial-gradient" cx="6087.1" cy="-734.51" fx="6087.1" fy="-734.51" r="408.68" gradientTransform="translate(6576.69 303.56) rotate(-90) scale(.14 1)" gradientUnits="userSpaceOnUse">
      <stop offset="0" stop-color="#fff"/>
      <stop offset=".05" stop-color="#cfcfcf"/>
      <stop offset=".1" stop-color="#a4a4a4"/>
      <stop offset=".15" stop-color="#7c7c7c"/>
      <stop offset=".21" stop-color="#5a5a5a"/>
      <stop offset=".28" stop-color="#3e3e3e"/>
      <stop offset=".35" stop-color="#272727"/>
      <stop offset=".44" stop-color="#151515"/>
      <stop offset=".54" stop-color="#090909"/>
      <stop offset=".68" stop-color="#020202"/>
      <stop offset="1" stop-color="#000"/>
    </radialGradient>
    <radialGradient id="radial-gradient1" cx="5298.08" cy="-684.85" fx="5298.08" fy="-684.85" r="408.57" gradientTransform="translate(5160.85 -44.56) scale(.13 .74)" xlink:href="#radial-gradient"/>
  </defs>
  <g class="st1">
    <g id="Layer_1">
      <rect class="st0" x="5298.29" y="-1147.38" width="1112.54" height="1103.44"/>
      <g>
        <rect class="st5" x="8216.5" y="-602.89" width="19.06" height="16.55"/>
        <rect class="st5" x="8189.6" y="-602.89" width="19.06" height="16.55"/>
        <path class="st5" d="M8162.55-626.34c4.04,3.15,8.79,5.61,14.26,7.41,5.47,1.79,11.4,2.68,17.81,2.68h41.82c7.98,0,14.85-1.52,20.62-4.57,5.76-3.05,10.22-7.24,13.38-12.56,3.15-5.33,4.73-11.47,4.73-18.44v-.44h111.28v-16.84h-34.49c-1.75-1.98-3.2-4.1-4.3-6.39-1.62-3.39-2.44-7.02-2.44-10.89,0-4.26.91-8.03,2.73-11.33,1.82-3.29,4.41-5.88,7.76-7.77,3.35-1.89,7.19-2.83,11.53-2.83,1.87,0,3.82.19,5.84.58,2.02.39,4.06.92,6.13,1.6l5.91-15.83c-2.96-.97-6.06-1.74-9.31-2.32s-6.35-.87-9.31-.87c-5.52,0-10.77.94-15.74,2.83-4.98,1.89-9.34,4.57-13.08,8.06-3.75,3.49-6.7,7.62-8.87,12.42-2.17,4.79-3.25,10.04-3.25,15.75s1.26,11.47,3.77,16.7c.05.1.1.19.15.29h-32.29v-85.82h-19.66v85.82h-28.52c-2.07,0-3.87-.1-5.39-.29-1.53-.19-2.91-.55-4.14-1.09-1.23-.53-2.64-1.33-4.21-2.4l-11.23,13.94c3.74,2.52,7.71,4.26,11.9,5.23,4.19.97,8.55,1.45,13.08,1.45h6.5v.44c0,6.1-1.58,10.75-4.73,13.94-3.15,3.19-7.93,4.79-14.33,4.79h-41.82c-5.12,0-9.58-.8-13.38-2.4-3.79-1.6-6.72-3.8-8.79-6.61-2.07-2.81-3.1-6.05-3.1-9.73,0-1.94.3-5.28.89-10.02.59-4.74,1.38-10.16,2.37-16.26l-19.51-2.61c-.69,4.26-1.31,8.28-1.85,12.05-.54,3.78-.96,7.12-1.26,10.02-.3,2.91-.44,5.28-.44,7.12,0,5.03,1.16,9.7,3.47,14.01,2.31,4.31,5.49,8.03,9.53,11.18Z"/>
        <rect class="st0" x="8181.77" y="-547.89" width="19.06" height="16.55"/>
        <rect class="st0" x="8154.87" y="-547.89" width="19.06" height="16.55"/>
        <path class="st0" d="M8167.87-461.92h-223.75v-56.05h-33.4c-8.37,0-15.27,1.38-20.69,4.14-5.42,2.76-9.44,6.87-12.04,12.34-2.61,5.47-3.92,12.27-3.92,20.4s1.3,14.86,3.92,20.18c2.61,5.33,6.62,9.29,12.04,11.91,5.42,2.61,12.32,3.92,20.69,3.92h276.8v-72.89h-19.66v56.05ZM7900.67-463.23c-2.46-.87-4.21-2.69-5.25-5.44-1.03-2.76-1.55-6.9-1.55-12.42,0-5.81.57-10.14,1.7-13,1.13-2.85,2.93-4.74,5.39-5.66,2.46-.92,5.71-1.38,9.75-1.38h13.6v39.21h-13.6c-4.24,0-7.59-.43-10.05-1.31Z"/>
        <path class="st0" d="M8354.53-517.98c-8.37,0-15.27,1.38-20.69,4.14-5.42,2.76-9.44,6.85-12.04,12.27-2.61,5.42-3.92,12.1-3.92,20.04s1.23,14.58,3.68,19.6h-31.91v-85.82h-19.8v85.82h-25.42v-65.49h-19.66v65.49h-20.54v16.84h183.7v-72.89h-33.4ZM8344.33-463.3c-2.46-.92-4.19-2.76-5.17-5.52-.99-2.76-1.48-6.99-1.48-12.71,0-5.23.49-9.27,1.48-12.13.98-2.85,2.71-4.82,5.17-5.88,2.46-1.06,5.86-1.6,10.2-1.6h13.6v39.21h-13.6c-4.34,0-7.73-.46-10.2-1.38Z"/>
        <rect class="st0" x="8346.69" y="-547.89" width="19.8" height="16.55"/>
      </g>
      <g>
        <g>
          <path class="st5" d="M6767.1-731.59l-25.71,99.18h20.25l5.32-20.04h35.32l5.61,20.04h20.4l-25.57-99.18h-35.62ZM6770.21-668.57l11.53-46.76h6.21l11.38,46.76h-29.11Z"/>
          <rect class="st5" x="6838.78" y="-735.07" width="19.66" height="102.66"/>
          <rect class="st5" x="6875.28" y="-705.3" width="19.66" height="72.89"/>
          <rect class="st5" x="6875.28" y="-733.47" width="19.8" height="16.55"/>
        </g>
        <g>
          <polygon class="st0" points="6741.39 -466.67 6761.78 -466.67 6761.78 -502.25 6798.43 -502.25 6798.43 -519.09 6761.78 -519.09 6761.78 -549 6806.56 -549 6806.56 -565.85 6741.39 -565.85 6741.39 -466.67"/>
          <path class="st0" d="M6876.17-483.66v-33.25c0-6-1.08-10.77-3.25-14.3-2.17-3.53-5.37-6.07-9.61-7.62-4.24-1.55-9.51-2.32-15.81-2.32-3.35,0-7,.19-10.94.58-3.94.39-7.71.9-11.31,1.53-3.6.63-6.68,1.23-9.24,1.81l.59,13.65c2.56-.29,5.59-.58,9.09-.87,3.5-.29,7.04-.53,10.64-.73,3.6-.19,6.77-.29,9.53-.29,3.45,0,6.06.7,7.83,2.11,1.77,1.4,2.66,3.85,2.66,7.33v4.36l-18.03,1.6c-5.61.29-10.37,1.14-14.26,2.54-3.89,1.4-6.82,3.63-8.79,6.68s-2.96,7.29-2.96,12.71c0,7.75,1.94,13.53,5.84,17.35,3.89,3.82,9.68,5.74,17.37,5.74,3.15,0,6.28-.29,9.38-.87,3.1-.58,5.98-1.31,8.65-2.18,2.66-.87,4.78-1.64,6.35-2.32.98.97,2.29,1.89,3.92,2.76,1.62.87,3.57,1.45,5.84,1.74,1.08.19,2.31.31,3.69.36,1.38.05,2.83.05,4.36,0,1.53-.05,3.08-.07,4.66-.07l.44-13.36c-1.68-.29-3.15-.8-4.43-1.53-1.28-.73-2.02-1.76-2.22-3.12ZM6856.37-482.93c-1.08.49-2.54.99-4.36,1.53s-3.77.99-5.84,1.38c-2.07.39-4.04.58-5.91.58-2.76,0-4.8-.82-6.13-2.47-1.33-1.64-1.99-3.92-1.99-6.82s.71-5.16,2.14-6.75c1.43-1.6,3.77-2.54,7.02-2.83l15.07-1.31v16.7Z"/>
          <rect class="st0" x="6894.05" y="-569.33" width="19.66" height="102.66"/>
          <rect class="st0" x="6931.15" y="-569.33" width="19.66" height="102.66"/>
          <path class="st0" d="M7027.65-483.66v-33.25c0-6-1.08-10.77-3.25-14.3-2.17-3.53-5.37-6.07-9.61-7.62-4.24-1.55-9.51-2.32-15.81-2.32-3.35,0-7,.19-10.94.58-3.94.39-7.71.9-11.31,1.53-3.6.63-6.68,1.23-9.24,1.81l.59,13.65c2.56-.29,5.59-.58,9.09-.87,3.5-.29,7.04-.53,10.64-.73,3.6-.19,6.77-.29,9.53-.29,3.45,0,6.06.7,7.83,2.11,1.77,1.4,2.66,3.85,2.66,7.33v4.36l-18.03,1.6c-5.61.29-10.37,1.14-14.26,2.54-3.89,1.4-6.82,3.63-8.79,6.68-1.97,3.05-2.96,7.29-2.96,12.71,0,7.75,1.94,13.53,5.84,17.35,3.89,3.82,9.68,5.74,17.37,5.74,3.15,0,6.28-.29,9.38-.87,3.1-.58,5.98-1.31,8.65-2.18,2.66-.87,4.78-1.64,6.35-2.32.98.97,2.29,1.89,3.92,2.76,1.62.87,3.57,1.45,5.84,1.74,1.08.19,2.31.31,3.69.36,1.38.05,2.83.05,4.36,0,1.53-.05,3.08-.07,4.66-.07l.44-13.36c-1.68-.29-3.15-.8-4.43-1.53-1.28-.73-2.02-1.76-2.22-3.12ZM7007.85-482.93c-1.08.49-2.54.99-4.36,1.53s-3.77.99-5.84,1.38c-2.07.39-4.04.58-5.91.58-2.76,0-4.8-.82-6.13-2.47-1.33-1.64-1.99-3.92-1.99-6.82s.71-5.16,2.14-6.75c1.43-1.6,3.77-2.54,7.02-2.83l15.07-1.31v16.7Z"/>
          <path class="st0" d="M7082.78-482.21c-1.38.1-2.76.19-4.14.29-1.38.1-2.42.15-3.1.15-2.46,0-4.29-.43-5.47-1.31-1.18-.87-1.95-2.37-2.29-4.5-.35-2.13-.52-5.08-.52-8.86v-27.01h18.92v-16.12h-18.92v-19.31h-19.66v19.31h-8.72v16.12h8.72v32.09c0,6.87.71,12.22,2.14,16.05,1.43,3.83,3.82,6.51,7.17,8.06,3.35,1.55,7.73,2.32,13.15,2.32,1.38,0,3.08-.12,5.1-.36,2.02-.24,4.09-.51,6.21-.8,2.12-.29,3.91-.58,5.39-.87l-.59-15.54c-.89.1-2.02.2-3.4.29Z"/>
          <path class="st0" d="M7157.11-483.66v-33.25c0-6-1.08-10.77-3.25-14.3-2.17-3.53-5.37-6.07-9.61-7.62-4.24-1.55-9.51-2.32-15.81-2.32-3.35,0-7,.19-10.94.58-3.94.39-7.71.9-11.31,1.53-3.6.63-6.68,1.23-9.24,1.81l.59,13.65c2.56-.29,5.59-.58,9.09-.87,3.5-.29,7.04-.53,10.64-.73,3.6-.19,6.77-.29,9.53-.29,3.45,0,6.06.7,7.83,2.11,1.77,1.4,2.66,3.85,2.66,7.33v4.36l-18.03,1.6c-5.61.29-10.37,1.14-14.26,2.54-3.89,1.4-6.82,3.63-8.79,6.68s-2.96,7.29-2.96,12.71c0,7.75,1.94,13.53,5.84,17.35,3.89,3.82,9.68,5.74,17.37,5.74,3.15,0,6.28-.29,9.38-.87,3.1-.58,5.98-1.31,8.65-2.18,2.66-.87,4.78-1.64,6.35-2.32.98.97,2.29,1.89,3.92,2.76,1.62.87,3.57,1.45,5.84,1.74,1.08.19,2.31.31,3.69.36,1.38.05,2.83.05,4.36,0,1.53-.05,3.08-.07,4.66-.07l.44-13.36c-1.68-.29-3.15-.8-4.43-1.53-1.28-.73-2.02-1.76-2.22-3.12ZM7137.31-482.93c-1.08.49-2.54.99-4.36,1.53s-3.77.99-5.84,1.38c-2.07.39-4.04.58-5.91.58-2.76,0-4.8-.82-6.13-2.47-1.33-1.64-1.99-3.92-1.99-6.82s.71-5.16,2.14-6.75c1.43-1.6,3.77-2.54,7.02-2.83l15.07-1.31v16.7Z"/>
          <path class="st0" d="M7239.36-521.7c-.84-4.65-2.24-8.4-4.21-11.25-1.97-2.85-4.65-4.94-8.05-6.24-3.4-1.31-7.71-1.96-12.93-1.96-2.07,0-4.36.24-6.87.73-2.51.49-4.93,1.04-7.24,1.67-2.32.63-4.31,1.23-5.98,1.81v-32.38h-19.66v102.66h19.66v-54.6c1.08-.38,2.49-.82,4.21-1.3,1.72-.48,3.52-.87,5.4-1.16,1.87-.29,3.69-.43,5.47-.43,3.35,0,5.84.68,7.46,2.03,1.63,1.36,2.74,3.56,3.33,6.61.59,3.05.89,7.09.89,12.13v36.74h19.8v-38.19c0-6.58-.42-12.2-1.26-16.85Z"/>
        </g>
      </g>
      <g>
        <path class="st2" d="M5842.19-608.45c225.73,0,408.73,25.69,408.73,57.37s-182.99,57.37-408.73,57.37c-225.73,0-408.73-25.69-408.73-57.37s182.99-57.37,408.73-57.37Z"/>
        <ellipse class="st3" cx="5842.19" cy="-551.07" rx="52.52" ry="302.33"/>
      </g>
      <rect class="st0" x="8718.29" y="-1147.38" width="1112.54" height="1103.44"/>
      <g>
        <rect class="st4" x="9356.5" y="-602.89" width="19.06" height="16.55"/>
        <rect class="st4" x="9329.6" y="-602.89" width="19.06" height="16.55"/>
        <path class="st4" d="M9302.55-626.34c4.04,3.15,8.79,5.61,14.26,7.41,5.47,1.79,11.4,2.68,17.81,2.68h41.82c7.98,0,14.85-1.52,20.62-4.57,5.76-3.05,10.22-7.24,13.38-12.56,3.15-5.33,4.73-11.47,4.73-18.44v-.44h111.28v-16.84h-34.49c-1.75-1.98-3.2-4.1-4.3-6.39-1.62-3.39-2.44-7.02-2.44-10.89,0-4.26.91-8.03,2.73-11.33,1.82-3.29,4.41-5.88,7.76-7.77,3.35-1.89,7.19-2.83,11.53-2.83,1.87,0,3.82.19,5.84.58,2.02.39,4.06.92,6.13,1.6l5.91-15.83c-2.96-.97-6.06-1.74-9.31-2.32s-6.35-.87-9.31-.87c-5.52,0-10.77.94-15.74,2.83-4.98,1.89-9.34,4.57-13.08,8.06-3.75,3.49-6.7,7.62-8.87,12.42-2.17,4.79-3.25,10.04-3.25,15.75s1.26,11.47,3.77,16.7c.05.1.1.19.15.29h-32.29v-85.82h-19.66v85.82h-28.52c-2.07,0-3.87-.1-5.39-.29-1.53-.19-2.91-.55-4.14-1.09-1.23-.53-2.64-1.33-4.21-2.4l-11.23,13.94c3.74,2.52,7.71,4.26,11.9,5.23,4.19.97,8.55,1.45,13.08,1.45h6.5v.44c0,6.1-1.58,10.75-4.73,13.94-3.15,3.19-7.93,4.79-14.33,4.79h-41.82c-5.12,0-9.58-.8-13.38-2.4-3.79-1.6-6.72-3.8-8.79-6.61-2.07-2.81-3.1-6.05-3.1-9.73,0-1.94.3-5.28.89-10.02.59-4.74,1.38-10.16,2.37-16.26l-19.51-2.61c-.69,4.26-1.31,8.28-1.85,12.05-.54,3.78-.96,7.12-1.26,10.02-.3,2.91-.44,5.28-.44,7.12,0,5.03,1.16,9.7,3.47,14.01,2.31,4.31,5.49,8.03,9.53,11.18Z"/>
        <rect class="st4" x="9321.77" y="-547.89" width="19.06" height="16.55"/>
        <rect class="st4" x="9294.87" y="-547.89" width="19.06" height="16.55"/>
        <path class="st4" d="M9307.87-461.92h-223.75v-56.05h-33.4c-8.37,0-15.27,1.38-20.69,4.14-5.42,2.76-9.44,6.87-12.04,12.34-2.61,5.47-3.92,12.27-3.92,20.4s1.3,14.86,3.92,20.18c2.61,5.33,6.62,9.29,12.04,11.91,5.42,2.61,12.32,3.92,20.69,3.92h276.8v-72.89h-19.66v56.05ZM9040.67-463.23c-2.46-.87-4.21-2.69-5.25-5.44-1.03-2.76-1.55-6.9-1.55-12.42,0-5.81.57-10.14,1.7-13,1.13-2.85,2.93-4.74,5.39-5.66,2.46-.92,5.71-1.38,9.75-1.38h13.6v39.21h-13.6c-4.24,0-7.59-.43-10.05-1.31Z"/>
        <path class="st4" d="M9494.53-517.98c-8.37,0-15.27,1.38-20.69,4.14-5.42,2.76-9.44,6.85-12.04,12.27-2.61,5.42-3.92,12.1-3.92,20.04s1.23,14.58,3.68,19.6h-31.91v-85.82h-19.8v85.82h-25.42v-65.49h-19.66v65.49h-20.54v16.84h183.7v-72.89h-33.4ZM9484.33-463.3c-2.46-.92-4.19-2.76-5.17-5.52-.99-2.76-1.48-6.99-1.48-12.71,0-5.23.49-9.27,1.48-12.13.98-2.85,2.71-4.82,5.17-5.88,2.46-1.06,5.86-1.6,10.2-1.6h13.6v39.21h-13.6c-4.34,0-7.73-.46-10.2-1.38Z"/>
        <rect class="st4" x="9486.69" y="-547.89" width="19.8" height="16.55"/>
      </g>
      <rect class="st0" x="9858.29" y="-1147.38" width="1112.54" height="1103.44"/>
      <g>
        <g>
          <path class="st4" d="M10187.1-731.59l-25.71,99.18h20.25l5.32-20.04h35.32l5.61,20.04h20.4l-25.57-99.18h-35.62ZM10190.21-668.57l11.53-46.76h6.21l11.38,46.76h-29.11Z"/>
          <rect class="st4" x="10258.78" y="-735.07" width="19.66" height="102.66"/>
          <rect class="st4" x="10295.28" y="-705.3" width="19.66" height="72.89"/>
          <rect class="st4" x="10295.28" y="-733.47" width="19.8" height="16.55"/>
        </g>
        <g>
          <polygon class="st4" points="10161.39 -466.67 10181.78 -466.67 10181.78 -502.25 10218.43 -502.25 10218.43 -519.09 10181.78 -519.09 10181.78 -549 10226.56 -549 10226.56 -565.85 10161.39 -565.85 10161.39 -466.67"/>
          <path class="st4" d="M10296.17-483.66v-33.25c0-6-1.08-10.77-3.25-14.3-2.17-3.53-5.37-6.07-9.61-7.62-4.24-1.55-9.51-2.32-15.81-2.32-3.35,0-7,.19-10.94.58-3.94.39-7.71.9-11.31,1.53-3.6.63-6.68,1.23-9.24,1.81l.59,13.65c2.56-.29,5.59-.58,9.09-.87,3.5-.29,7.04-.53,10.64-.73,3.6-.19,6.77-.29,9.53-.29,3.45,0,6.06.7,7.83,2.11,1.77,1.4,2.66,3.85,2.66,7.33v4.36l-18.03,1.6c-5.61.29-10.37,1.14-14.26,2.54-3.89,1.4-6.82,3.63-8.79,6.68s-2.96,7.29-2.96,12.71c0,7.75,1.94,13.53,5.84,17.35,3.89,3.82,9.68,5.74,17.37,5.74,3.15,0,6.28-.29,9.38-.87,3.1-.58,5.98-1.31,8.65-2.18,2.66-.87,4.78-1.64,6.35-2.32.98.97,2.29,1.89,3.92,2.76,1.62.87,3.57,1.45,5.84,1.74,1.08.19,2.31.31,3.69.36,1.38.05,2.83.05,4.36,0,1.53-.05,3.08-.07,4.66-.07l.44-13.36c-1.68-.29-3.15-.8-4.43-1.53-1.28-.73-2.02-1.76-2.22-3.12ZM10276.37-482.93c-1.08.49-2.54.99-4.36,1.53s-3.77.99-5.84,1.38c-2.07.39-4.04.58-5.91.58-2.76,0-4.8-.82-6.13-2.47-1.33-1.64-1.99-3.92-1.99-6.82s.71-5.16,2.14-6.75c1.43-1.6,3.77-2.54,7.02-2.83l15.07-1.31v16.7Z"/>
          <rect class="st4" x="10314.05" y="-569.33" width="19.66" height="102.66"/>
          <rect class="st4" x="10351.15" y="-569.33" width="19.66" height="102.66"/>
          <path class="st4" d="M10447.65-483.66v-33.25c0-6-1.08-10.77-3.25-14.3-2.17-3.53-5.37-6.07-9.61-7.62-4.24-1.55-9.51-2.32-15.81-2.32-3.35,0-7,.19-10.94.58-3.94.39-7.71.9-11.31,1.53-3.6.63-6.68,1.23-9.24,1.81l.59,13.65c2.56-.29,5.59-.58,9.09-.87,3.5-.29,7.04-.53,10.64-.73,3.6-.19,6.77-.29,9.53-.29,3.45,0,6.06.7,7.83,2.11,1.77,1.4,2.66,3.85,2.66,7.33v4.36l-18.03,1.6c-5.61.29-10.37,1.14-14.26,2.54-3.89,1.4-6.82,3.63-8.79,6.68-1.97,3.05-2.96,7.29-2.96,12.71,0,7.75,1.94,13.53,5.84,17.35,3.89,3.82,9.68,5.74,17.37,5.74,3.15,0,6.28-.29,9.38-.87,3.1-.58,5.98-1.31,8.65-2.18,2.66-.87,4.78-1.64,6.35-2.32.98.97,2.29,1.89,3.92,2.76,1.62.87,3.57,1.45,5.84,1.74,1.08.19,2.31.31,3.69.36,1.38.05,2.83.05,4.36,0,1.53-.05,3.08-.07,4.66-.07l.44-13.36c-1.68-.29-3.15-.8-4.43-1.53-1.28-.73-2.02-1.76-2.22-3.12ZM10427.85-482.93c-1.08.49-2.54.99-4.36,1.53s-3.77.99-5.84,1.38c-2.07.39-4.04.58-5.91.58-2.76,0-4.8-.82-6.13-2.47-1.33-1.64-1.99-3.92-1.99-6.82s.71-5.16,2.14-6.75c1.43-1.6,3.77-2.54,7.02-2.83l15.07-1.31v16.7Z"/>
          <path class="st4" d="M10502.78-482.21c-1.38.1-2.76.19-4.14.29-1.38.1-2.42.15-3.1.15-2.46,0-4.29-.43-5.47-1.31-1.18-.87-1.95-2.37-2.29-4.5-.35-2.13-.52-5.08-.52-8.86v-27.01h18.92v-16.12h-18.92v-19.31h-19.66v19.31h-8.72v16.12h8.72v32.09c0,6.87.71,12.22,2.14,16.05,1.43,3.83,3.82,6.51,7.17,8.06,3.35,1.55,7.73,2.32,13.15,2.32,1.38,0,3.08-.12,5.1-.36,2.02-.24,4.09-.51,6.21-.8,2.12-.29,3.91-.58,5.39-.87l-.59-15.54c-.89.1-2.02.2-3.4.29Z"/>
          <path class="st4" d="M10577.11-483.66v-33.25c0-6-1.08-10.77-3.25-14.3-2.17-3.53-5.37-6.07-9.61-7.62-4.24-1.55-9.51-2.32-15.81-2.32-3.35,0-7,.19-10.94.58-3.94.39-7.71.9-11.31,1.53-3.6.63-6.68,1.23-9.24,1.81l.59,13.65c2.56-.29,5.59-.58,9.09-.87,3.5-.29,7.04-.53,10.64-.73,3.6-.19,6.77-.29,9.53-.29,3.45,0,6.06.7,7.83,2.11,1.77,1.4,2.66,3.85,2.66,7.33v4.36l-18.03,1.6c-5.61.29-10.37,1.14-14.26,2.54-3.89,1.4-6.82,3.63-8.79,6.68s-2.96,7.29-2.96,12.71c0,7.75,1.94,13.53,5.84,17.35,3.89,3.82,9.68,5.74,17.37,5.74,3.15,0,6.28-.29,9.38-.87,3.1-.58,5.98-1.31,8.65-2.18,2.66-.87,4.78-1.64,6.35-2.32.98.97,2.29,1.89,3.92,2.76,1.62.87,3.57,1.45,5.84,1.74,1.08.19,2.31.31,3.69.36,1.38.05,2.83.05,4.36,0,1.53-.05,3.08-.07,4.66-.07l.44-13.36c-1.68-.29-3.15-.8-4.43-1.53-1.28-.73-2.02-1.76-2.22-3.12ZM10557.31-482.93c-1.08.49-2.54.99-4.36,1.53s-3.77.99-5.84,1.38c-2.07.39-4.04.58-5.91.58-2.76,0-4.8-.82-6.13-2.47-1.33-1.64-1.99-3.92-1.99-6.82s.71-5.16,2.14-6.75c1.43-1.6,3.77-2.54,7.02-2.83l15.07-1.31v16.7Z"/>
          <path class="st4" d="M10659.36-521.7c-.84-4.65-2.24-8.4-4.21-11.25-1.97-2.85-4.65-4.94-8.05-6.24-3.4-1.31-7.71-1.96-12.93-1.96-2.07,0-4.36.24-6.87.73-2.51.49-4.93,1.04-7.24,1.67-2.32.63-4.31,1.23-5.98,1.81v-32.38h-19.66v102.66h19.66v-54.6c1.08-.38,2.49-.82,4.21-1.3,1.72-.48,3.52-.87,5.4-1.16,1.87-.29,3.69-.43,5.47-.43,3.35,0,5.84.68,7.46,2.03,1.63,1.36,2.74,3.56,3.33,6.61.59,3.05.89,7.09.89,12.13v36.74h19.8v-38.19c0-6.58-.42-12.2-1.26-16.85Z"/>
        </g>
      </g>
      <rect class="st4" x="10998.29" y="-1147.38" width="1112.54" height="1103.44"/>
      <g>
        <rect class="st0" x="11636.5" y="-602.89" width="19.06" height="16.55"/>
        <rect class="st0" x="11609.6" y="-602.89" width="19.06" height="16.55"/>
        <path class="st0" d="M11582.55-626.34c4.04,3.15,8.79,5.61,14.26,7.41,5.47,1.79,11.4,2.68,17.81,2.68h41.82c7.98,0,14.85-1.52,20.62-4.57,5.76-3.05,10.22-7.24,13.38-12.56,3.15-5.33,4.73-11.47,4.73-18.44v-.44h111.28v-16.84h-34.49c-1.75-1.98-3.2-4.1-4.3-6.39-1.62-3.39-2.44-7.02-2.44-10.89,0-4.26.91-8.03,2.73-11.33,1.82-3.29,4.41-5.88,7.76-7.77,3.35-1.89,7.19-2.83,11.53-2.83,1.87,0,3.82.19,5.84.58,2.02.39,4.06.92,6.13,1.6l5.91-15.83c-2.96-.97-6.06-1.74-9.31-2.32s-6.35-.87-9.31-.87c-5.52,0-10.77.94-15.74,2.83-4.98,1.89-9.34,4.57-13.08,8.06-3.75,3.49-6.7,7.62-8.87,12.42-2.17,4.79-3.25,10.04-3.25,15.75s1.26,11.47,3.77,16.7c.05.1.1.19.15.29h-32.29v-85.82h-19.66v85.82h-28.52c-2.07,0-3.87-.1-5.39-.29-1.53-.19-2.91-.55-4.14-1.09-1.23-.53-2.64-1.33-4.21-2.4l-11.23,13.94c3.74,2.52,7.71,4.26,11.9,5.23,4.19.97,8.55,1.45,13.08,1.45h6.5v.44c0,6.1-1.58,10.75-4.73,13.94-3.15,3.19-7.93,4.79-14.33,4.79h-41.82c-5.12,0-9.58-.8-13.38-2.4-3.79-1.6-6.72-3.8-8.79-6.61-2.07-2.81-3.1-6.05-3.1-9.73,0-1.94.3-5.28.89-10.02.59-4.74,1.38-10.16,2.37-16.26l-19.51-2.61c-.69,4.26-1.31,8.28-1.85,12.05-.54,3.78-.96,7.12-1.26,10.02-.3,2.91-.44,5.28-.44,7.12,0,5.03,1.16,9.7,3.47,14.01,2.31,4.31,5.49,8.03,9.53,11.18Z"/>
        <rect class="st0" x="11601.77" y="-547.89" width="19.06" height="16.55"/>
        <rect class="st0" x="11574.87" y="-547.89" width="19.06" height="16.55"/>
        <path class="st0" d="M11587.87-461.92h-223.75v-56.05h-33.4c-8.37,0-15.27,1.38-20.69,4.14-5.42,2.76-9.44,6.87-12.04,12.34-2.61,5.47-3.92,12.27-3.92,20.4s1.3,14.86,3.92,20.18c2.61,5.33,6.62,9.29,12.04,11.91,5.42,2.61,12.32,3.92,20.69,3.92h276.8v-72.89h-19.66v56.05ZM11320.67-463.23c-2.46-.87-4.21-2.69-5.25-5.44-1.03-2.76-1.55-6.9-1.55-12.42,0-5.81.57-10.14,1.7-13,1.13-2.85,2.93-4.74,5.39-5.66,2.46-.92,5.71-1.38,9.75-1.38h13.6v39.21h-13.6c-4.24,0-7.59-.43-10.05-1.31Z"/>
        <path class="st0" d="M11774.53-517.98c-8.37,0-15.27,1.38-20.69,4.14-5.42,2.76-9.44,6.85-12.04,12.27-2.61,5.42-3.92,12.1-3.92,20.04s1.23,14.58,3.68,19.6h-31.91v-85.82h-19.8v85.82h-25.42v-65.49h-19.66v65.49h-20.54v16.84h183.7v-72.89h-33.4ZM11764.33-463.3c-2.46-.92-4.19-2.76-5.17-5.52-.99-2.76-1.48-6.99-1.48-12.71,0-5.23.49-9.27,1.48-12.13.98-2.85,2.71-4.82,5.17-5.88,2.46-1.06,5.86-1.6,10.2-1.6h13.6v39.21h-13.6c-4.34,0-7.73-.46-10.2-1.38Z"/>
        <rect class="st0" x="11766.69" y="-547.89" width="19.8" height="16.55"/>
      </g>
      <rect class="st4" x="12138.29" y="-1147.38" width="1112.54" height="1103.44"/>
      <g>
        <g>
          <path class="st0" d="M12467.1-731.59l-25.71,99.18h20.25l5.32-20.04h35.32l5.61,20.04h20.4l-25.57-99.18h-35.62ZM12470.21-668.57l11.53-46.76h6.21l11.38,46.76h-29.11Z"/>
          <rect class="st0" x="12538.78" y="-735.07" width="19.66" height="102.66"/>
          <rect class="st0" x="12575.28" y="-705.3" width="19.66" height="72.89"/>
          <rect class="st0" x="12575.28" y="-733.47" width="19.8" height="16.55"/>
        </g>
        <g>
          <polygon class="st0" points="12441.39 -466.67 12461.78 -466.67 12461.78 -502.25 12498.43 -502.25 12498.43 -519.09 12461.78 -519.09 12461.78 -549 12506.56 -549 12506.56 -565.85 12441.39 -565.85 12441.39 -466.67"/>
          <path class="st0" d="M12576.17-483.66v-33.25c0-6-1.08-10.77-3.25-14.3-2.17-3.53-5.37-6.07-9.61-7.62-4.24-1.55-9.51-2.32-15.81-2.32-3.35,0-7,.19-10.94.58-3.94.39-7.71.9-11.31,1.53-3.6.63-6.68,1.23-9.24,1.81l.59,13.65c2.56-.29,5.59-.58,9.09-.87,3.5-.29,7.04-.53,10.64-.73,3.6-.19,6.77-.29,9.53-.29,3.45,0,6.06.7,7.83,2.11,1.77,1.4,2.66,3.85,2.66,7.33v4.36l-18.03,1.6c-5.61.29-10.37,1.14-14.26,2.54-3.89,1.4-6.82,3.63-8.79,6.68s-2.96,7.29-2.96,12.71c0,7.75,1.94,13.53,5.84,17.35,3.89,3.82,9.68,5.74,17.37,5.74,3.15,0,6.28-.29,9.38-.87,3.1-.58,5.98-1.31,8.65-2.18,2.66-.87,4.78-1.64,6.35-2.32.98.97,2.29,1.89,3.92,2.76,1.62.87,3.57,1.45,5.84,1.74,1.08.19,2.31.31,3.69.36,1.38.05,2.83.05,4.36,0,1.53-.05,3.08-.07,4.66-.07l.44-13.36c-1.68-.29-3.15-.8-4.43-1.53-1.28-.73-2.02-1.76-2.22-3.12ZM12556.37-482.93c-1.08.49-2.54.99-4.36,1.53s-3.77.99-5.84,1.38c-2.07.39-4.04.58-5.91.58-2.76,0-4.8-.82-6.13-2.47-1.33-1.64-1.99-3.92-1.99-6.82s.71-5.16,2.14-6.75c1.43-1.6,3.77-2.54,7.02-2.83l15.07-1.31v16.7Z"/>
          <rect class="st0" x="12594.05" y="-569.33" width="19.66" height="102.66"/>
          <rect class="st0" x="12631.15" y="-569.33" width="19.66" height="102.66"/>
          <path class="st0" d="M12727.65-483.66v-33.25c0-6-1.08-10.77-3.25-14.3-2.17-3.53-5.37-6.07-9.61-7.62-4.24-1.55-9.51-2.32-15.81-2.32-3.35,0-7,.19-10.94.58-3.94.39-7.71.9-11.31,1.53-3.6.63-6.68,1.23-9.24,1.81l.59,13.65c2.56-.29,5.59-.58,9.09-.87,3.5-.29,7.04-.53,10.64-.73,3.6-.19,6.77-.29,9.53-.29,3.45,0,6.06.7,7.83,2.11,1.77,1.4,2.66,3.85,2.66,7.33v4.36l-18.03,1.6c-5.61.29-10.37,1.14-14.26,2.54-3.89,1.4-6.82,3.63-8.79,6.68-1.97,3.05-2.96,7.29-2.96,12.71,0,7.75,1.94,13.53,5.84,17.35,3.89,3.82,9.68,5.74,17.37,5.74,3.15,0,6.28-.29,9.38-.87,3.1-.58,5.98-1.31,8.65-2.18,2.66-.87,4.78-1.64,6.35-2.32.98.97,2.29,1.89,3.92,2.76,1.62.87,3.57,1.45,5.84,1.74,1.08.19,2.31.31,3.69.36,1.38.05,2.83.05,4.36,0,1.53-.05,3.08-.07,4.66-.07l.44-13.36c-1.68-.29-3.15-.8-4.43-1.53-1.28-.73-2.02-1.76-2.22-3.12ZM12707.85-482.93c-1.08.49-2.54.99-4.36,1.53s-3.77.99-5.84,1.38c-2.07.39-4.04.58-5.91.58-2.76,0-4.8-.82-6.13-2.47-1.33-1.64-1.99-3.92-1.99-6.82s.71-5.16,2.14-6.75c1.43-1.6,3.77-2.54,7.02-2.83l15.07-1.31v16.7Z"/>
          <path class="st0" d="M12782.78-482.21c-1.38.1-2.76.19-4.14.29-1.38.1-2.42.15-3.1.15-2.46,0-4.29-.43-5.47-1.31-1.18-.87-1.95-2.37-2.29-4.5-.35-2.13-.52-5.08-.52-8.86v-27.01h18.92v-16.12h-18.92v-19.31h-19.66v19.31h-8.72v16.12h8.72v32.09c0,6.87.71,12.22,2.14,16.05,1.43,3.83,3.82,6.51,7.17,8.06,3.35,1.55,7.73,2.32,13.15,2.32,1.38,0,3.08-.12,5.1-.36,2.02-.24,4.09-.51,6.21-.8,2.12-.29,3.91-.58,5.39-.87l-.59-15.54c-.89.1-2.02.2-3.4.29Z"/>
          <path class="st0" d="M12857.11-483.66v-33.25c0-6-1.08-10.77-3.25-14.3-2.17-3.53-5.37-6.07-9.61-7.62-4.24-1.55-9.51-2.32-15.81-2.32-3.35,0-7,.19-10.94.58-3.94.39-7.71.9-11.31,1.53-3.6.63-6.68,1.23-9.24,1.81l.59,13.65c2.56-.29,5.59-.58,9.09-.87,3.5-.29,7.04-.53,10.64-.73,3.6-.19,6.77-.29,9.53-.29,3.45,0,6.06.7,7.83,2.11,1.77,1.4,2.66,3.85,2.66,7.33v4.36l-18.03,1.6c-5.61.29-10.37,1.14-14.26,2.54-3.89,1.4-6.82,3.63-8.79,6.68s-2.96,7.29-2.96,12.71c0,7.75,1.94,13.53,5.84,17.35,3.89,3.82,9.68,5.74,17.37,5.74,3.15,0,6.28-.29,9.38-.87,3.1-.58,5.98-1.31,8.65-2.18,2.66-.87,4.78-1.64,6.35-2.32.98.97,2.29,1.89,3.92,2.76,1.62.87,3.57,1.45,5.84,1.74,1.08.19,2.31.31,3.69.36,1.38.05,2.83.05,4.36,0,1.53-.05,3.08-.07,4.66-.07l.44-13.36c-1.68-.29-3.15-.8-4.43-1.53-1.28-.73-2.02-1.76-2.22-3.12ZM12837.31-482.93c-1.08.49-2.54.99-4.36,1.53s-3.77.99-5.84,1.38c-2.07.39-4.04.58-5.91.58-2.76,0-4.8-.82-6.13-2.47-1.33-1.64-1.99-3.92-1.99-6.82s.71-5.16,2.14-6.75c1.43-1.6,3.77-2.54,7.02-2.83l15.07-1.31v16.7Z"/>
          <path class="st0" d="M12939.36-521.7c-.84-4.65-2.24-8.4-4.21-11.25-1.97-2.85-4.65-4.94-8.05-6.24-3.4-1.31-7.71-1.96-12.93-1.96-2.07,0-4.36.24-6.87.73-2.51.49-4.93,1.04-7.24,1.67-2.32.63-4.31,1.23-5.98,1.81v-32.38h-19.66v102.66h19.66v-54.6c1.08-.38,2.49-.82,4.21-1.3,1.72-.48,3.52-.87,5.4-1.16,1.87-.29,3.69-.43,5.47-.43,3.35,0,5.84.68,7.46,2.03,1.63,1.36,2.74,3.56,3.33,6.61.59,3.05.89,7.09.89,12.13v36.74h19.8v-38.19c0-6.58-.42-12.2-1.26-16.85Z"/>
        </g>
      </g>
      <rect x="-2292.71" y="-7.38" width="1112.54" height="1103.44"/>
      <g>
        <rect class="st0" x="-1654.5" y="537.11" width="19.06" height="16.55"/>
        <rect class="st0" x="-1681.4" y="537.11" width="19.06" height="16.55"/>
        <path class="st0" d="M-1708.45,513.66c4.04,3.15,8.79,5.61,14.26,7.41,5.47,1.79,11.4,2.68,17.81,2.68h41.82c7.98,0,14.85-1.52,20.62-4.57,5.76-3.05,10.22-7.24,13.38-12.56,3.15-5.33,4.73-11.47,4.73-18.44v-.44h111.28v-16.84h-34.49c-1.75-1.98-3.2-4.1-4.3-6.39-1.62-3.39-2.44-7.02-2.44-10.89,0-4.26.91-8.03,2.73-11.33,1.82-3.29,4.41-5.88,7.76-7.77,3.35-1.89,7.19-2.83,11.53-2.83,1.87,0,3.82.19,5.84.58,2.02.39,4.06.92,6.13,1.6l5.91-15.83c-2.96-.97-6.06-1.74-9.31-2.32s-6.35-.87-9.31-.87c-5.52,0-10.77.94-15.74,2.83-4.98,1.89-9.34,4.57-13.08,8.06-3.75,3.49-6.7,7.62-8.87,12.42-2.17,4.79-3.25,10.04-3.25,15.75s1.26,11.47,3.77,16.7c.05.1.1.19.15.29h-32.29v-85.82h-19.66v85.82h-28.52c-2.07,0-3.87-.1-5.39-.29-1.53-.19-2.91-.55-4.14-1.09-1.23-.53-2.64-1.33-4.21-2.4l-11.23,13.94c3.74,2.52,7.71,4.26,11.9,5.23,4.19.97,8.55,1.45,13.08,1.45h6.5v.44c0,6.1-1.58,10.75-4.73,13.94-3.15,3.19-7.93,4.79-14.33,4.79h-41.82c-5.12,0-9.58-.8-13.38-2.4-3.79-1.6-6.72-3.8-8.79-6.61-2.07-2.81-3.1-6.05-3.1-9.73,0-1.94.3-5.28.89-10.02.59-4.74,1.38-10.16,2.37-16.26l-19.51-2.61c-.69,4.26-1.31,8.28-1.85,12.05-.54,3.78-.96,7.12-1.26,10.02-.3,2.91-.44,5.28-.44,7.12,0,5.03,1.16,9.7,3.47,14.01,2.31,4.31,5.49,8.03,9.53,11.18Z"/>
        <rect class="st0" x="-1689.23" y="592.11" width="19.06" height="16.55"/>
        <rect class="st0" x="-1716.13" y="592.11" width="19.06" height="16.55"/>
        <path class="st0" d="M-1703.13,678.08h-223.75v-56.05h-33.4c-8.37,0-15.27,1.38-20.69,4.14-5.42,2.76-9.44,6.87-12.04,12.34-2.61,5.47-3.92,12.27-3.92,20.4s1.3,14.86,3.92,20.18c2.61,5.33,6.62,9.29,12.04,11.91,5.42,2.61,12.32,3.92,20.69,3.92h276.8v-72.89h-19.66v56.05ZM-1970.33,676.77c-2.46-.87-4.21-2.69-5.25-5.44-1.03-2.76-1.55-6.9-1.55-12.42,0-5.81.57-10.14,1.7-13,1.13-2.85,2.93-4.74,5.39-5.66,2.46-.92,5.71-1.38,9.75-1.38h13.6v39.21h-13.6c-4.24,0-7.59-.43-10.05-1.31Z"/>
        <path class="st0" d="M-1516.47,622.02c-8.37,0-15.27,1.38-20.69,4.14-5.42,2.76-9.44,6.85-12.04,12.27-2.61,5.42-3.92,12.1-3.92,20.04s1.23,14.58,3.68,19.6h-31.91v-85.82h-19.8v85.82h-25.42v-65.49h-19.66v65.49h-20.54v16.84h183.7v-72.89h-33.4ZM-1526.67,676.7c-2.46-.92-4.19-2.76-5.17-5.52-.99-2.76-1.48-6.99-1.48-12.71,0-5.23.49-9.27,1.48-12.13.98-2.85,2.71-4.82,5.17-5.88,2.46-1.06,5.86-1.6,10.2-1.6h13.6v39.21h-13.6c-4.34,0-7.73-.46-10.2-1.38Z"/>
        <rect class="st0" x="-1524.31" y="592.11" width="19.8" height="16.55"/>
      </g>
      <rect x="-1152.71" y="-7.38" width="1112.54" height="1103.44"/>
      <g>
        <g>
          <path class="st0" d="M-823.9,408.41l-25.71,99.18h20.25l5.32-20.04h35.32l5.61,20.04h20.4l-25.57-99.18h-35.62ZM-820.79,471.43l11.53-46.76h6.21l11.38,46.76h-29.11Z"/>
          <rect class="st0" x="-752.22" y="404.93" width="19.66" height="102.66"/>
          <rect class="st0" x="-715.72" y="434.7" width="19.66" height="72.89"/>
          <rect class="st0" x="-715.72" y="406.53" width="19.8" height="16.55"/>
        </g>
        <g>
          <polygon class="st0" points="-849.61 673.33 -829.22 673.33 -829.22 637.75 -792.57 637.75 -792.57 620.91 -829.22 620.91 -829.22 591 -784.44 591 -784.44 574.15 -849.61 574.15 -849.61 673.33"/>
          <path class="st0" d="M-714.83,656.34v-33.25c0-6-1.08-10.77-3.25-14.3-2.17-3.53-5.37-6.07-9.61-7.62-4.24-1.55-9.51-2.32-15.81-2.32-3.35,0-7,.19-10.94.58-3.94.39-7.71.9-11.31,1.53-3.6.63-6.68,1.23-9.24,1.81l.59,13.65c2.56-.29,5.59-.58,9.09-.87,3.5-.29,7.04-.53,10.64-.73,3.6-.19,6.77-.29,9.53-.29,3.45,0,6.06.7,7.83,2.11,1.77,1.4,2.66,3.85,2.66,7.33v4.36l-18.03,1.6c-5.61.29-10.37,1.14-14.26,2.54-3.89,1.4-6.82,3.63-8.79,6.68s-2.96,7.29-2.96,12.71c0,7.75,1.94,13.53,5.84,17.35,3.89,3.82,9.68,5.74,17.37,5.74,3.15,0,6.28-.29,9.38-.87,3.1-.58,5.98-1.31,8.65-2.18,2.66-.87,4.78-1.64,6.35-2.32.98.97,2.29,1.89,3.92,2.76,1.62.87,3.57,1.45,5.84,1.74,1.08.19,2.31.31,3.69.36,1.38.05,2.83.05,4.36,0,1.53-.05,3.08-.07,4.66-.07l.44-13.36c-1.68-.29-3.15-.8-4.43-1.53-1.28-.73-2.02-1.76-2.22-3.12ZM-734.63,657.07c-1.08.49-2.54.99-4.36,1.53s-3.77.99-5.84,1.38c-2.07.39-4.04.58-5.91.58-2.76,0-4.8-.82-6.13-2.47-1.33-1.64-1.99-3.92-1.99-6.82s.71-5.16,2.14-6.75c1.43-1.6,3.77-2.54,7.02-2.83l15.07-1.31v16.7Z"/>
          <rect class="st0" x="-696.95" y="570.67" width="19.66" height="102.66"/>
          <rect class="st0" x="-659.85" y="570.67" width="19.66" height="102.66"/>
          <path class="st0" d="M-563.35,656.34v-33.25c0-6-1.08-10.77-3.25-14.3-2.17-3.53-5.37-6.07-9.61-7.62-4.24-1.55-9.51-2.32-15.81-2.32-3.35,0-7,.19-10.94.58-3.94.39-7.71.9-11.31,1.53-3.6.63-6.68,1.23-9.24,1.81l.59,13.65c2.56-.29,5.59-.58,9.09-.87,3.5-.29,7.04-.53,10.64-.73,3.6-.19,6.77-.29,9.53-.29,3.45,0,6.06.7,7.83,2.11,1.77,1.4,2.66,3.85,2.66,7.33v4.36l-18.03,1.6c-5.61.29-10.37,1.14-14.26,2.54-3.89,1.4-6.82,3.63-8.79,6.68-1.97,3.05-2.96,7.29-2.96,12.71,0,7.75,1.94,13.53,5.84,17.35,3.89,3.82,9.68,5.74,17.37,5.74,3.15,0,6.28-.29,9.38-.87,3.1-.58,5.98-1.31,8.65-2.18,2.66-.87,4.78-1.64,6.35-2.32.98.97,2.29,1.89,3.92,2.76,1.62.87,3.57,1.45,5.84,1.74,1.08.19,2.31.31,3.69.36,1.38.05,2.83.05,4.36,0,1.53-.05,3.08-.07,4.66-.07l.44-13.36c-1.68-.29-3.15-.8-4.43-1.53-1.28-.73-2.02-1.76-2.22-3.12ZM-583.15,657.07c-1.08.49-2.54.99-4.36,1.53s-3.77.99-5.84,1.38c-2.07.39-4.04.58-5.91.58-2.76,0-4.8-.82-6.13-2.47-1.33-1.64-1.99-3.92-1.99-6.82s.71-5.16,2.14-6.75c1.43-1.6,3.77-2.54,7.02-2.83l15.07-1.31v16.7Z"/>
          <path class="st0" d="M-508.22,657.79c-1.38.1-2.76.19-4.14.29-1.38.1-2.42.15-3.1.15-2.46,0-4.29-.43-5.47-1.31-1.18-.87-1.95-2.37-2.29-4.5-.35-2.13-.52-5.08-.52-8.86v-27.01h18.92v-16.12h-18.92v-19.31h-19.66v19.31h-8.72v16.12h8.72v32.09c0,6.87.71,12.22,2.14,16.05,1.43,3.83,3.82,6.51,7.17,8.06,3.35,1.55,7.73,2.32,13.15,2.32,1.38,0,3.08-.12,5.1-.36,2.02-.24,4.09-.51,6.21-.8,2.12-.29,3.91-.58,5.39-.87l-.59-15.54c-.89.1-2.02.2-3.4.29Z"/>
          <path class="st0" d="M-433.89,656.34v-33.25c0-6-1.08-10.77-3.25-14.3-2.17-3.53-5.37-6.07-9.61-7.62-4.24-1.55-9.51-2.32-15.81-2.32-3.35,0-7,.19-10.94.58-3.94.39-7.71.9-11.31,1.53-3.6.63-6.68,1.23-9.24,1.81l.59,13.65c2.56-.29,5.59-.58,9.09-.87,3.5-.29,7.04-.53,10.64-.73,3.6-.19,6.77-.29,9.53-.29,3.45,0,6.06.7,7.83,2.11,1.77,1.4,2.66,3.85,2.66,7.33v4.36l-18.03,1.6c-5.61.29-10.37,1.14-14.26,2.54-3.89,1.4-6.82,3.63-8.79,6.68s-2.96,7.29-2.96,12.71c0,7.75,1.94,13.53,5.84,17.35,3.89,3.82,9.68,5.74,17.37,5.74,3.15,0,6.28-.29,9.38-.87,3.1-.58,5.98-1.31,8.65-2.18,2.66-.87,4.78-1.64,6.35-2.32.98.97,2.29,1.89,3.92,2.76,1.62.87,3.57,1.45,5.84,1.74,1.08.19,2.31.31,3.69.36,1.38.05,2.83.05,4.36,0,1.53-.05,3.08-.07,4.66-.07l.44-13.36c-1.68-.29-3.15-.8-4.43-1.53-1.28-.73-2.02-1.76-2.22-3.12ZM-453.69,657.07c-1.08.49-2.54.99-4.36,1.53s-3.77.99-5.84,1.38c-2.07.39-4.04.58-5.91.58-2.76,0-4.8-.82-6.13-2.47-1.33-1.64-1.99-3.92-1.99-6.82s.71-5.16,2.14-6.75c1.43-1.6,3.77-2.54,7.02-2.83l15.07-1.31v16.7Z"/>
          <path class="st0" d="M-351.64,618.3c-.84-4.65-2.24-8.4-4.21-11.25-1.97-2.85-4.65-4.94-8.05-6.24-3.4-1.31-7.71-1.96-12.93-1.96-2.07,0-4.36.24-6.87.73-2.51.49-4.93,1.04-7.24,1.67-2.32.63-4.31,1.23-5.98,1.81v-32.38h-19.66v102.66h19.66v-54.6c1.08-.38,2.49-.82,4.21-1.3,1.72-.48,3.52-.87,5.4-1.16,1.87-.29,3.69-.43,5.47-.43,3.35,0,5.84.68,7.46,2.03,1.63,1.36,2.74,3.56,3.33,6.61.59,3.05.89,7.09.89,12.13v36.74h19.8v-38.19c0-6.58-.42-12.2-1.26-16.85Z"/>
        </g>
      </g>
      <rect x="-16.27" y="-11.72" width="1112.54" height="1103.44"/>
      <g>
        <rect class="st4" x="634.23" y="528.5" width="19.06" height="16.55"/>
        <rect class="st4" x="607.33" y="528.5" width="19.06" height="16.55"/>
        <path class="st4" d="M580.29,505.05c4.04,3.15,8.79,5.61,14.26,7.41,5.47,1.79,11.4,2.68,17.81,2.68h41.82c7.98,0,14.85-1.52,20.62-4.57,5.76-3.05,10.22-7.24,13.38-12.56,3.15-5.33,4.73-11.47,4.73-18.44v-.44h111.28v-16.84h-34.49c-1.75-1.98-3.2-4.1-4.3-6.39-1.62-3.39-2.44-7.02-2.44-10.89,0-4.26.91-8.03,2.73-11.33,1.82-3.29,4.41-5.88,7.76-7.77,3.35-1.89,7.19-2.83,11.53-2.83,1.87,0,3.82.19,5.84.58,2.02.39,4.06.92,6.13,1.6l5.91-15.83c-2.96-.97-6.06-1.74-9.31-2.32s-6.35-.87-9.31-.87c-5.52,0-10.77.94-15.74,2.83-4.98,1.89-9.34,4.57-13.08,8.06-3.75,3.49-6.7,7.62-8.87,12.42-2.17,4.79-3.25,10.04-3.25,15.75s1.26,11.47,3.77,16.7c.05.1.1.19.15.29h-32.29v-85.82h-19.66v85.82h-28.52c-2.07,0-3.87-.1-5.39-.29-1.53-.19-2.91-.55-4.14-1.09-1.23-.53-2.64-1.33-4.21-2.4l-11.23,13.94c3.74,2.52,7.71,4.26,11.9,5.23,4.19.97,8.55,1.45,13.08,1.45h6.5v.44c0,6.1-1.58,10.75-4.73,13.94-3.15,3.19-7.93,4.79-14.33,4.79h-41.82c-5.12,0-9.58-.8-13.38-2.4-3.79-1.6-6.72-3.8-8.79-6.61-2.07-2.81-3.1-6.05-3.1-9.73,0-1.94.3-5.28.89-10.02.59-4.74,1.38-10.16,2.37-16.26l-19.51-2.61c-.69,4.26-1.31,8.28-1.85,12.05-.54,3.78-.96,7.12-1.26,10.02-.3,2.91-.44,5.28-.44,7.12,0,5.03,1.16,9.7,3.47,14.01,2.31,4.31,5.49,8.03,9.53,11.18Z"/>
        <rect class="st4" x="599.5" y="583.5" width="19.06" height="16.55"/>
        <rect class="st4" x="572.6" y="583.5" width="19.06" height="16.55"/>
        <path class="st4" d="M585.6,669.47h-223.75v-56.05h-33.4c-8.37,0-15.27,1.38-20.69,4.14-5.42,2.76-9.44,6.87-12.04,12.34-2.61,5.47-3.92,12.27-3.92,20.4s1.3,14.86,3.92,20.18c2.61,5.33,6.62,9.29,12.04,11.91,5.42,2.61,12.32,3.92,20.69,3.92h276.8v-72.89h-19.66v56.05ZM318.41,668.16c-2.46-.87-4.21-2.69-5.25-5.44-1.03-2.76-1.55-6.9-1.55-12.42,0-5.81.57-10.14,1.7-13,1.13-2.85,2.93-4.74,5.39-5.66,2.46-.92,5.71-1.38,9.75-1.38h13.6v39.21h-13.6c-4.24,0-7.59-.43-10.05-1.31Z"/>
        <path class="st4" d="M772.26,613.42c-8.37,0-15.27,1.38-20.69,4.14-5.42,2.76-9.44,6.85-12.04,12.27-2.61,5.42-3.92,12.1-3.92,20.04s1.23,14.58,3.68,19.6h-31.91v-85.82h-19.8v85.82h-25.42v-65.49h-19.66v65.49h-20.54v16.84h183.7v-72.89h-33.4ZM762.06,668.09c-2.46-.92-4.19-2.76-5.17-5.52-.99-2.76-1.48-6.99-1.48-12.71,0-5.23.49-9.27,1.48-12.13.98-2.85,2.71-4.82,5.17-5.88,2.46-1.06,5.86-1.6,10.2-1.6h13.6v39.21h-13.6c-4.34,0-7.73-.46-10.2-1.38Z"/>
        <rect class="st4" x="764.43" y="583.5" width="19.8" height="16.55"/>
      </g>
      <rect x="1123.73" y="-11.72" width="1112.54" height="1103.44"/>
      <g>
        <g>
          <path class="st4" d="M1464.84,399.8l-25.71,99.18h20.25l5.32-20.04h35.32l5.61,20.04h20.4l-25.57-99.18h-35.62ZM1467.94,462.82l11.53-46.76h6.21l11.38,46.76h-29.11Z"/>
          <rect class="st4" x="1536.51" y="396.32" width="19.66" height="102.66"/>
          <rect class="st4" x="1573.02" y="426.09" width="19.66" height="72.89"/>
          <rect class="st4" x="1573.02" y="397.92" width="19.8" height="16.55"/>
        </g>
        <g>
          <polygon class="st4" points="1439.12 664.72 1459.51 664.72 1459.51 629.14 1496.17 629.14 1496.17 612.3 1459.51 612.3 1459.51 582.39 1504.29 582.39 1504.29 565.55 1439.12 565.55 1439.12 664.72"/>
          <path class="st4" d="M1573.9,647.73v-33.25c0-6-1.08-10.77-3.25-14.3-2.17-3.53-5.37-6.07-9.61-7.62-4.24-1.55-9.51-2.32-15.81-2.32-3.35,0-7,.19-10.94.58-3.94.39-7.71.9-11.31,1.53-3.6.63-6.68,1.23-9.24,1.81l.59,13.65c2.56-.29,5.59-.58,9.09-.87,3.5-.29,7.04-.53,10.64-.73,3.6-.19,6.77-.29,9.53-.29,3.45,0,6.06.7,7.83,2.11,1.77,1.4,2.66,3.85,2.66,7.33v4.36l-18.03,1.6c-5.61.29-10.37,1.14-14.26,2.54-3.89,1.4-6.82,3.63-8.79,6.68s-2.96,7.29-2.96,12.71c0,7.75,1.94,13.53,5.84,17.35,3.89,3.82,9.68,5.74,17.37,5.74,3.15,0,6.28-.29,9.38-.87,3.1-.58,5.98-1.31,8.65-2.18,2.66-.87,4.78-1.64,6.35-2.32.98.97,2.29,1.89,3.92,2.76,1.62.87,3.57,1.45,5.84,1.74,1.08.19,2.31.31,3.69.36,1.38.05,2.83.05,4.36,0,1.53-.05,3.08-.07,4.66-.07l.44-13.36c-1.68-.29-3.15-.8-4.43-1.53-1.28-.73-2.02-1.76-2.22-3.12ZM1554.1,648.46c-1.08.49-2.54.99-4.36,1.53s-3.77.99-5.84,1.38c-2.07.39-4.04.58-5.91.58-2.76,0-4.8-.82-6.13-2.47-1.33-1.64-1.99-3.92-1.99-6.82s.71-5.16,2.14-6.75c1.43-1.6,3.77-2.54,7.02-2.83l15.07-1.31v16.7Z"/>
          <rect class="st4" x="1591.79" y="562.06" width="19.66" height="102.66"/>
          <rect class="st4" x="1628.88" y="562.06" width="19.66" height="102.66"/>
          <path class="st4" d="M1725.38,647.73v-33.25c0-6-1.08-10.77-3.25-14.3-2.17-3.53-5.37-6.07-9.61-7.62-4.24-1.55-9.51-2.32-15.81-2.32-3.35,0-7,.19-10.94.58-3.94.39-7.71.9-11.31,1.53-3.6.63-6.68,1.23-9.24,1.81l.59,13.65c2.56-.29,5.59-.58,9.09-.87,3.5-.29,7.04-.53,10.64-.73,3.6-.19,6.77-.29,9.53-.29,3.45,0,6.06.7,7.83,2.11,1.77,1.4,2.66,3.85,2.66,7.33v4.36l-18.03,1.6c-5.61.29-10.37,1.14-14.26,2.54-3.89,1.4-6.82,3.63-8.79,6.68-1.97,3.05-2.96,7.29-2.96,12.71,0,7.75,1.94,13.53,5.84,17.35,3.89,3.82,9.68,5.74,17.37,5.74,3.15,0,6.28-.29,9.38-.87,3.1-.58,5.98-1.31,8.65-2.18,2.66-.87,4.78-1.64,6.35-2.32.98.97,2.29,1.89,3.92,2.76,1.62.87,3.57,1.45,5.84,1.74,1.08.19,2.31.31,3.69.36,1.38.05,2.83.05,4.36,0,1.53-.05,3.08-.07,4.66-.07l.44-13.36c-1.68-.29-3.15-.8-4.43-1.53-1.28-.73-2.02-1.76-2.22-3.12ZM1705.58,648.46c-1.08.49-2.54.99-4.36,1.53s-3.77.99-5.84,1.38c-2.07.39-4.04.58-5.91.58-2.76,0-4.8-.82-6.13-2.47-1.33-1.64-1.99-3.92-1.99-6.82s.71-5.16,2.14-6.75c1.43-1.6,3.77-2.54,7.02-2.83l15.07-1.31v16.7Z"/>
          <path class="st4" d="M1780.51,649.18c-1.38.1-2.76.19-4.14.29-1.38.1-2.42.15-3.1.15-2.46,0-4.29-.43-5.47-1.31-1.18-.87-1.95-2.37-2.29-4.5-.35-2.13-.52-5.08-.52-8.86v-27.01h18.92v-16.12h-18.92v-19.31h-19.66v19.31h-8.72v16.12h8.72v32.09c0,6.87.71,12.22,2.14,16.05,1.43,3.83,3.82,6.51,7.17,8.06,3.35,1.55,7.73,2.32,13.15,2.32,1.38,0,3.08-.12,5.1-.36,2.02-.24,4.09-.51,6.21-.8,2.12-.29,3.91-.58,5.39-.87l-.59-15.54c-.89.1-2.02.2-3.4.29Z"/>
          <path class="st4" d="M1854.84,647.73v-33.25c0-6-1.08-10.77-3.25-14.3-2.17-3.53-5.37-6.07-9.61-7.62-4.24-1.55-9.51-2.32-15.81-2.32-3.35,0-7,.19-10.94.58-3.94.39-7.71.9-11.31,1.53-3.6.63-6.68,1.23-9.24,1.81l.59,13.65c2.56-.29,5.59-.58,9.09-.87,3.5-.29,7.04-.53,10.64-.73,3.6-.19,6.77-.29,9.53-.29,3.45,0,6.06.7,7.83,2.11,1.77,1.4,2.66,3.85,2.66,7.33v4.36l-18.03,1.6c-5.61.29-10.37,1.14-14.26,2.54-3.89,1.4-6.82,3.63-8.79,6.68s-2.96,7.29-2.96,12.71c0,7.75,1.94,13.53,5.84,17.35,3.89,3.82,9.68,5.74,17.37,5.74,3.15,0,6.28-.29,9.38-.87,3.1-.58,5.98-1.31,8.65-2.18,2.66-.87,4.78-1.64,6.35-2.32.98.97,2.29,1.89,3.92,2.76,1.62.87,3.57,1.45,5.84,1.74,1.08.19,2.31.31,3.69.36,1.38.05,2.83.05,4.36,0,1.53-.05,3.08-.07,4.66-.07l.44-13.36c-1.68-.29-3.15-.8-4.43-1.53-1.28-.73-2.02-1.76-2.22-3.12ZM1835.04,648.46c-1.08.49-2.54.99-4.36,1.53s-3.77.99-5.84,1.38c-2.07.39-4.04.58-5.91.58-2.76,0-4.8-.82-6.13-2.47-1.33-1.64-1.99-3.92-1.99-6.82s.71-5.16,2.14-6.75c1.43-1.6,3.77-2.54,7.02-2.83l15.07-1.31v16.7Z"/>
          <path class="st4" d="M1937.09,609.69c-.84-4.65-2.24-8.4-4.21-11.25-1.97-2.85-4.65-4.94-8.05-6.24-3.4-1.31-7.71-1.96-12.93-1.96-2.07,0-4.36.24-6.87.73-2.51.49-4.93,1.04-7.24,1.67-2.32.63-4.31,1.23-5.98,1.81v-32.38h-19.66v102.66h19.66v-54.6c1.08-.38,2.49-.82,4.21-1.3,1.72-.48,3.52-.87,5.4-1.16,1.87-.29,3.69-.43,5.47-.43,3.35,0,5.84.68,7.46,2.03,1.63,1.36,2.74,3.56,3.33,6.61.59,3.05.89,7.09.89,12.13v36.74h19.8v-38.19c0-6.58-.42-12.2-1.26-16.85Z"/>
        </g>
      </g>
    </g>
  </g>
</svg>