<svg xmlns="http://www.w3.org/2000/svg" width="1920" height="1080" viewBox="0 0 1920 1080">
<circle cx="-260" cy="-260" r="86" fill="none" stroke="#8b5cf6" stroke-opacity="0.18" stroke-width="1"/>
<circle cx="-260" cy="-260" r="43" fill="none" stroke="#3b82f6" stroke-opacity="0.22" stroke-width="1"/>
<circle cx="0" cy="-260" r="86" fill="none" stroke="#8b5cf6" stroke-opacity="0.18" stroke-width="1"/>
<circle cx="0" cy="-260" r="43" fill="none" stroke="#3b82f6" stroke-opacity="0.22" stroke-width="1"/>
<circle cx="260" cy="-260" r="86" fill="none" stroke="#8b5cf6" stroke-opacity="0.18" stroke-width="1"/>
<circle cx="260" cy="-260" r="43" fill="none" stroke="#3b82f6" stroke-opacity="0.22" stroke-width="1"/>
<circle cx="520" cy="-260" r="86" fill="none" stroke="#8b5cf6" stroke-opacity="0.18" stroke-width="1"/>
<circle cx="520" cy="-260" r="43" fill="none" stroke="#3b82f6" stroke-opacity="0.22" stroke-width="1"/>
<circle cx="780" cy="-260" r="86" fill="none" stroke="#8b5cf6" stroke-opacity="0.18" stroke-width="1"/>
<circle cx="780" cy="-260" r="43" fill="none" stroke="#3b82f6" stroke-opacity="0.22" stroke-width="1"/>
<circle cx="1040" cy="-260" r="86" fill="none" stroke="#8b5cf6" stroke-opacity="0.18" stroke-width="1"/>
<circle cx="1040" cy="-260" r="43" fill="none" stroke="#3b82f6" stroke-opacity="0.22" stroke-width="1"/>
<circle cx="1300" cy="-260" r="86" fill="none" stroke="#8b5cf6" stroke-opacity="0.18" stroke-width="1"/>
<circle cx="1300" cy="-260" r="43" fill="none" stroke="#3b82f6" stroke-opacity="0.22" stroke-width="1"/>
<circle cx="1560" cy="-260" r="86" fill="none" stroke="#8b5cf6" stroke-opacity="0.18" stroke-width="1"/>
<circle cx="1560" cy="-260" r="43" fill="none" stroke="#3b82f6" stroke-opacity="0.22" stroke-width="1"/>
<circle cx="1820" cy="-260" r="86" fill="none" stroke="#8b5cf6" stroke-opacity="0.18" stroke-width="1"/>
<circle cx="1820" cy="-260" r="43" fill="none" stroke="#3b82f6" stroke-opacity="0.22" stroke-width="1"/>
<circle cx="2080" cy="-260" r="86" fill="none" stroke="#8b5cf6" stroke-opacity="0.18" stroke-width="1"/>
<circle cx="2080" cy="-260" r="43" fill="none" stroke="#3b82f6" stroke-opacity="0.22" stroke-width="1"/>
<circle cx="-260" cy="0" r="86" fill="none" stroke="#8b5cf6" stroke-opacity="0.18" stroke-width="1"/>
<circle cx="-260" cy="0" r="43" fill="none" stroke="#3b82f6" stroke-opacity="0.22" stroke-width="1"/>
<circle cx="0" cy="0" r="86" fill="none" stroke="#8b5cf6" stroke-opacity="0.18" stroke-width="1"/>
<circle cx="0" cy="0" r="43" fill="none" stroke="#3b82f6" stroke-opacity="0.22" stroke-width="1"/>
<circle cx="260" cy="0" r="86" fill="none" stroke="#8b5cf6" stroke-opacity="0.18" stroke-width="1"/>
<circle cx="260" cy="0" r="43" fill="none" stroke="#3b82f6" stroke-opacity="0.22" stroke-width="1"/>
<circle cx="520" cy="0" r="86" fill="none" stroke="#8b5cf6" stroke-opacity="0.18" stroke-width="1"/>
<circle cx="520" cy="0" r="43" fill="none" stroke="#3b82f6" stroke-opacity="0.22" stroke-width="1"/>
<circle cx="780" cy="0" r="86" fill="none" stroke="#8b5cf6" stroke-opacity="0.18" stroke-width="1"/>
<circle cx="780" cy="0" r="43" fill="none" stroke="#3b82f6" stroke-opacity="0.22" stroke-width="1"/>
<circle cx="1040" cy="0" r="86" fill="none" stroke="#8b5cf6" stroke-opacity="0.18" stroke-width="1"/>
<circle cx="1040" cy="0" r="43" fill="none" stroke="#3b82f6" stroke-opacity="0.22" stroke-width="1"/>
<circle cx="1300" cy="0" r="86" fill="none" stroke="#8b5cf6" stroke-opacity="0.18" stroke-width="1"/>
<circle cx="1300" cy="0" r="43" fill="none" stroke="#3b82f6" stroke-opacity="0.22" stroke-width="1"/>
<circle cx="1560" cy="0" r="86" fill="none" stroke="#8b5cf6" stroke-opacity="0.18" stroke-width="1"/>
<circle cx="1560" cy="0" r="43" fill="none" stroke="#3b82f6" stroke-opacity="0.22" stroke-width="1"/>
<circle cx="1820" cy="0" r="86" fill="none" stroke="#8b5cf6" stroke-opacity="0.18" stroke-width="1"/>
<circle cx="1820" cy="0" r="43" fill="none" stroke="#3b82f6" stroke-opacity="0.22" stroke-width="1"/>
<circle cx="2080" cy="0" r="86" fill="none" stroke="#8b5cf6" stroke-opacity="0.18" stroke-width="1"/>
<circle cx="2080" cy="0" r="43" fill="none" stroke="#3b82f6" stroke-opacity="0.22" stroke-width="1"/>
<circle cx="-260" cy="260" r="86" fill="none" stroke="#8b5cf6" stroke-opacity="0.18" stroke-width="1"/>
<circle cx="-260" cy="260" r="43" fill="none" stroke="#3b82f6" stroke-opacity="0.22" stroke-width="1"/>
<circle cx="0" cy="260" r="86" fill="none" stroke="#8b5cf6" stroke-opacity="0.18" stroke-width="1"/>
<circle cx="0" cy="260" r="43" fill="none" stroke="#3b82f6" stroke-opacity="0.22" stroke-width="1"/>
<circle cx="260" cy="260" r="86" fill="none" stroke="#8b5cf6" stroke-opacity="0.18" stroke-width="1"/>
<circle cx="260" cy="260" r="43" fill="none" stroke="#3b82f6" stroke-opacity="0.22" stroke-width="1"/>
<circle cx="520" cy="260" r="86" fill="none" stroke="#8b5cf6" stroke-opacity="0.18" stroke-width="1"/>
<circle cx="520" cy="260" r="43" fill="none" stroke="#3b82f6" stroke-opacity="0.22" stroke-width="1"/>
<circle cx="780" cy="260" r="86" fill="none" stroke="#8b5cf6" stroke-opacity="0.18" stroke-width="1"/>
<circle cx="780" cy="260" r="43" fill="none" stroke="#3b82f6" stroke-opacity="0.22" stroke-width="1"/>
<circle cx="1040" cy="260" r="86" fill="none" stroke="#8b5cf6" stroke-opacity="0.18" stroke-width="1"/>
<circle cx="1040" cy="260" r="43" fill="none" stroke="#3b82f6" stroke-opacity="0.22" stroke-width="1"/>
<circle cx="1300" cy="260" r="86" fill="none" stroke="#8b5cf6" stroke-opacity="0.18" stroke-width="1"/>
<circle cx="1300" cy="260" r="43" fill="none" stroke="#3b82f6" stroke-opacity="0.22" stroke-width="1"/>
<circle cx="1560" cy="260" r="86" fill="none" stroke="#8b5cf6" stroke-opacity="0.18" stroke-width="1"/>
<circle cx="1560" cy="260" r="43" fill="none" stroke="#3b82f6" stroke-opacity="0.22" stroke-width="1"/>
<circle cx="1820" cy="260" r="86" fill="none" stroke="#8b5cf6" stroke-opacity="0.18" stroke-width="1"/>
<circle cx="1820" cy="260" r="43" fill="none" stroke="#3b82f6" stroke-opacity="0.22" stroke-width="1"/>
<circle cx="2080" cy="260" r="86" fill="none" stroke="#8b5cf6" stroke-opacity="0.18" stroke-width="1"/>
<circle cx="2080" cy="260" r="43" fill="none" stroke="#3b82f6" stroke-opacity="0.22" stroke-width="1"/>
<circle cx="-260" cy="520" r="86" fill="none" stroke="#8b5cf6" stroke-opacity="0.18" stroke-width="1"/>
<circle cx="-260" cy="520" r="43" fill="none" stroke="#3b82f6" stroke-opacity="0.22" stroke-width="1"/>
<circle cx="0" cy="520" r="86" fill="none" stroke="#8b5cf6" stroke-opacity="0.18" stroke-width="1"/>
<circle cx="0" cy="520" r="43" fill="none" stroke="#3b82f6" stroke-opacity="0.22" stroke-width="1"/>
<circle cx="260" cy="520" r="86" fill="none" stroke="#8b5cf6" stroke-opacity="0.18" stroke-width="1"/>
<circle cx="260" cy="520" r="43" fill="none" stroke="#3b82f6" stroke-opacity="0.22" stroke-width="1"/>
<circle cx="520" cy="520" r="86" fill="none" stroke="#8b5cf6" stroke-opacity="0.18" stroke-width="1"/>
<circle cx="520" cy="520" r="43" fill="none" stroke="#3b82f6" stroke-opacity="0.22" stroke-width="1"/>
<circle cx="780" cy="520" r="86" fill="none" stroke="#8b5cf6" stroke-opacity="0.18" stroke-width="1"/>
<circle cx="780" cy="520" r="43" fill="none" stroke="#3b82f6" stroke-opacity="0.22" stroke-width="1"/>
<circle cx="1040" cy="520" r="86" fill="none" stroke="#8b5cf6" stroke-opacity="0.18" stroke-width="1"/>
<circle cx="1040" cy="520" r="43" fill="none" stroke="#3b82f6" stroke-opacity="0.22" stroke-width="1"/>
<circle cx="1300" cy="520" r="86" fill="none" stroke="#8b5cf6" stroke-opacity="0.18" stroke-width="1"/>
<circle cx="1300" cy="520" r="43" fill="none" stroke="#3b82f6" stroke-opacity="0.22" stroke-width="1"/>
<circle cx="1560" cy="520" r="86" fill="none" stroke="#8b5cf6" stroke-opacity="0.18" stroke-width="1"/>
<circle cx="1560" cy="520" r="43" fill="none" stroke="#3b82f6" stroke-opacity="0.22" stroke-width="1"/>
<circle cx="1820" cy="520" r="86" fill="none" stroke="#8b5cf6" stroke-opacity="0.18" stroke-width="1"/>
<circle cx="1820" cy="520" r="43" fill="none" stroke="#3b82f6" stroke-opacity="0.22" stroke-width="1"/>
<circle cx="2080" cy="520" r="86" fill="none" stroke="#8b5cf6" stroke-opacity="0.18" stroke-width="1"/>
<circle cx="2080" cy="520" r="43" fill="none" stroke="#3b82f6" stroke-opacity="0.22" stroke-width="1"/>
<circle cx="-260" cy="780" r="86" fill="none" stroke="#8b5cf6" stroke-opacity="0.18" stroke-width="1"/>
<circle cx="-260" cy="780" r="43" fill="none" stroke="#3b82f6" stroke-opacity="0.22" stroke-width="1"/>
<circle cx="0" cy="780" r="86" fill="none" stroke="#8b5cf6" stroke-opacity="0.18" stroke-width="1"/>
<circle cx="0" cy="780" r="43" fill="none" stroke="#3b82f6" stroke-opacity="0.22" stroke-width="1"/>
<circle cx="260" cy="780" r="86" fill="none" stroke="#8b5cf6" stroke-opacity="0.18" stroke-width="1"/>
<circle cx="260" cy="780" r="43" fill="none" stroke="#3b82f6" stroke-opacity="0.22" stroke-width="1"/>
<circle cx="520" cy="780" r="86" fill="none" stroke="#8b5cf6" stroke-opacity="0.18" stroke-width="1"/>
<circle cx="520" cy="780" r="43" fill="none" stroke="#3b82f6" stroke-opacity="0.22" stroke-width="1"/>
<circle cx="780" cy="780" r="86" fill="none" stroke="#8b5cf6" stroke-opacity="0.18" stroke-width="1"/>
<circle cx="780" cy="780" r="43" fill="none" stroke="#3b82f6" stroke-opacity="0.22" stroke-width="1"/>
<circle cx="1040" cy="780" r="86" fill="none" stroke="#8b5cf6" stroke-opacity="0.18" stroke-width="1"/>
<circle cx="1040" cy="780" r="43" fill="none" stroke="#3b82f6" stroke-opacity="0.22" stroke-width="1"/>
<circle cx="1300" cy="780" r="86" fill="none" stroke="#8b5cf6" stroke-opacity="0.18" stroke-width="1"/>
<circle cx="1300" cy="780" r="43" fill="none" stroke="#3b82f6" stroke-opacity="0.22" stroke-width="1"/>
<circle cx="1560" cy="780" r="86" fill="none" stroke="#8b5cf6" stroke-opacity="0.18" stroke-width="1"/>
<circle cx="1560" cy="780" r="43" fill="none" stroke="#3b82f6" stroke-opacity="0.22" stroke-width="1"/>
<circle cx="1820" cy="780" r="86" fill="none" stroke="#8b5cf6" stroke-opacity="0.18" stroke-width="1"/>
<circle cx="1820" cy="780" r="43" fill="none" stroke="#3b82f6" stroke-opacity="0.22" stroke-width="1"/>
<circle cx="2080" cy="780" r="86" fill="none" stroke="#8b5cf6" stroke-opacity="0.18" stroke-width="1"/>
<circle cx="2080" cy="780" r="43" fill="none" stroke="#3b82f6" stroke-opacity="0.22" stroke-width="1"/>
<circle cx="-260" cy="1040" r="86" fill="none" stroke="#8b5cf6" stroke-opacity="0.18" stroke-width="1"/>
<circle cx="-260" cy="1040" r="43" fill="none" stroke="#3b82f6" stroke-opacity="0.22" stroke-width="1"/>
<circle cx="0" cy="1040" r="86" fill="none" stroke="#8b5cf6" stroke-opacity="0.18" stroke-width="1"/>
<circle cx="0" cy="1040" r="43" fill="none" stroke="#3b82f6" stroke-opacity="0.22" stroke-width="1"/>
<circle cx="260" cy="1040" r="86" fill="none" stroke="#8b5cf6" stroke-opacity="0.18" stroke-width="1"/>
<circle cx="260" cy="1040" r="43" fill="none" stroke="#3b82f6" stroke-opacity="0.22" stroke-width="1"/>
<circle cx="520" cy="1040" r="86" fill="none" stroke="#8b5cf6" stroke-opacity="0.18" stroke-width="1"/>
<circle cx="520" cy="1040" r="43" fill="none" stroke="#3b82f6" stroke-opacity="0.22" stroke-width="1"/>
<circle cx="780" cy="1040" r="86" fill="none" stroke="#8b5cf6" stroke-opacity="0.18" stroke-width="1"/>
<circle cx="780" cy="1040" r="43" fill="none" stroke="#3b82f6" stroke-opacity="0.22" stroke-width="1"/>
<circle cx="1040" cy="1040" r="86" fill="none" stroke="#8b5cf6" stroke-opacity="0.18" stroke-width="1"/>
<circle cx="1040" cy="1040" r="43" fill="none" stroke="#3b82f6" stroke-opacity="0.22" stroke-width="1"/>
<circle cx="1300" cy="1040" r="86" fill="none" stroke="#8b5cf6" stroke-opacity="0.18" stroke-width="1"/>
<circle cx="1300" cy="1040" r="43" fill="none" stroke="#3b82f6" stroke-opacity="0.22" stroke-width="1"/>
<circle cx="1560" cy="1040" r="86" fill="none" stroke="#8b5cf6" stroke-opacity="0.18" stroke-width="1"/>
<circle cx="1560" cy="1040" r="43" fill="none" stroke="#3b82f6" stroke-opacity="0.22" stroke-width="1"/>
<circle cx="1820" cy="1040" r="86" fill="none" stroke="#8b5cf6" stroke-opacity="0.18" stroke-width="1"/>
<circle cx="1820" cy="1040" r="43" fill="none" stroke="#3b82f6" stroke-opacity="0.22" stroke-width="1"/>
<circle cx="2080" cy="1040" r="86" fill="none" stroke="#8b5cf6" stroke-opacity="0.18" stroke-width="1"/>
<circle cx="2080" cy="1040" r="43" fill="none" stroke="#3b82f6" stroke-opacity="0.22" stroke-width="1"/>
<circle cx="-260" cy="1300" r="86" fill="none" stroke="#8b5cf6" stroke-opacity="0.18" stroke-width="1"/>
<circle cx="-260" cy="1300" r="43" fill="none" stroke="#3b82f6" stroke-opacity="0.22" stroke-width="1"/>
<circle cx="0" cy="1300" r="86" fill="none" stroke="#8b5cf6" stroke-opacity="0.18" stroke-width="1"/>
<circle cx="0" cy="1300" r="43" fill="none" stroke="#3b82f6" stroke-opacity="0.22" stroke-width="1"/>
<circle cx="260" cy="1300" r="86" fill="none" stroke="#8b5cf6" stroke-opacity="0.18" stroke-width="1"/>
<circle cx="260" cy="1300" r="43" fill="none" stroke="#3b82f6" stroke-opacity="0.22" stroke-width="1"/>
<circle cx="520" cy="1300" r="86" fill="none" stroke="#8b5cf6" stroke-opacity="0.18" stroke-width="1"/>
<circle cx="520" cy="1300" r="43" fill="none" stroke="#3b82f6" stroke-opacity="0.22" stroke-width="1"/>
<circle cx="780" cy="1300" r="86" fill="none" stroke="#8b5cf6" stroke-opacity="0.18" stroke-width="1"/>
<circle cx="780" cy="1300" r="43" fill="none" stroke="#3b82f6" stroke-opacity="0.22" stroke-width="1"/>
<circle cx="1040" cy="1300" r="86" fill="none" stroke="#8b5cf6" stroke-opacity="0.18" stroke-width="1"/>
<circle cx="1040" cy="1300" r="43" fill="none" stroke="#3b82f6" stroke-opacity="0.22" stroke-width="1"/>
<circle cx="1300" cy="1300" r="86" fill="none" stroke="#8b5cf6" stroke-opacity="0.18" stroke-width="1"/>
<circle cx="1300" cy="1300" r="43" fill="none" stroke="#3b82f6" stroke-opacity="0.22" stroke-width="1"/>
<circle cx="1560" cy="1300" r="86" fill="none" stroke="#8b5cf6" stroke-opacity="0.18" stroke-width="1"/>
<circle cx="1560" cy="1300" r="43" fill="none" stroke="#3b82f6" stroke-opacity="0.22" stroke-width="1"/>
<circle cx="1820" cy="1300" r="86" fill="none" stroke="#8b5cf6" stroke-opacity="0.18" stroke-width="1"/>
<circle cx="1820" cy="1300" r="43" fill="none" stroke="#3b82f6" stroke-opacity="0.22" stroke-width="1"/>
<circle cx="2080" cy="1300" r="86" fill="none" stroke="#8b5cf6" stroke-opacity="0.18" stroke-width="1"/>
<circle cx="2080" cy="1300" r="43" fill="none" stroke="#3b82f6" stroke-opacity="0.22" stroke-width="1"/>
</svg>