<svg xmlns="http://www.w3.org/2000/svg" width="1080" height="1920" viewBox="0 0 1080 1920">
<circle cx="-240" cy="-240" r="80" fill="none" stroke="#8b5cf6" stroke-opacity="0.18" stroke-width="1"/>
<circle cx="-240" cy="-240" r="40" fill="none" stroke="#3b82f6" stroke-opacity="0.22" stroke-width="1"/>
<circle cx="0" cy="-240" r="80" fill="none" stroke="#8b5cf6" stroke-opacity="0.18" stroke-width="1"/>
<circle cx="0" cy="-240" r="40" fill="none" stroke="#3b82f6" stroke-opacity="0.22" stroke-width="1"/>
<circle cx="240" cy="-240" r="80" fill="none" stroke="#8b5cf6" stroke-opacity="0.18" stroke-width="1"/>
<circle cx="240" cy="-240" r="40" fill="none" stroke="#3b82f6" stroke-opacity="0.22" stroke-width="1"/>
<circle cx="480" cy="-240" r="80" fill="none" stroke="#8b5cf6" stroke-opacity="0.18" stroke-width="1"/>
<circle cx="480" cy="-240" r="40" fill="none" stroke="#3b82f6" stroke-opacity="0.22" stroke-width="1"/>
<circle cx="720" cy="-240" r="80" fill="none" stroke="#8b5cf6" stroke-opacity="0.18" stroke-width="1"/>
<circle cx="720" cy="-240" r="40" fill="none" stroke="#3b82f6" stroke-opacity="0.22" stroke-width="1"/>
<circle cx="960" cy="-240" r="80" fill="none" stroke="#8b5cf6" stroke-opacity="0.18" stroke-width="1"/>
<circle cx="960" cy="-240" r="40" fill="none" stroke="#3b82f6" stroke-opacity="0.22" stroke-width="1"/>
<circle cx="1200" cy="-240" r="80" fill="none" stroke="#8b5cf6" stroke-opacity="0.18" stroke-width="1"/>
<circle cx="1200" cy="-240" r="40" fill="none" stroke="#3b82f6" stroke-opacity="0.22" stroke-width="1"/>
<circle cx="-240" cy="0" r="80" fill="none" stroke="#8b5cf6" stroke-opacity="0.18" stroke-width="1"/>
<circle cx="-240" cy="0" r="40" fill="none" stroke="#3b82f6" stroke-opacity="0.22" stroke-width="1"/>
<circle cx="0" cy="0" r="80" fill="none" stroke="#8b5cf6" stroke-opacity="0.18" stroke-width="1"/>
<circle cx="0" cy="0" r="40" fill="none" stroke="#3b82f6" stroke-opacity="0.22" stroke-width="1"/>
<circle cx="240" cy="0" r="80" fill="none" stroke="#8b5cf6" stroke-opacity="0.18" stroke-width="1"/>
<circle cx="240" cy="0" r="40" fill="none" stroke="#3b82f6" stroke-opacity="0.22" stroke-width="1"/>
<circle cx="480" cy="0" r="80" fill="none" stroke="#8b5cf6" stroke-opacity="0.18" stroke-width="1"/>
<circle cx="480" cy="0" r="40" fill="none" stroke="#3b82f6" stroke-opacity="0.22" stroke-width="1"/>
<circle cx="720" cy="0" r="80" fill="none" stroke="#8b5cf6" stroke-opacity="0.18" stroke-width="1"/>
<circle cx="720" cy="0" r="40" fill="none" stroke="#3b82f6" stroke-opacity="0.22" stroke-width="1"/>
<circle cx="960" cy="0" r="80" fill="none" stroke="#8b5cf6" stroke-opacity="0.18" stroke-width="1"/>
<circle cx="960" cy="0" r="40" fill="none" stroke="#3b82f6" stroke-opacity="0.22" stroke-width="1"/>
<circle cx="1200" cy="0" r="80" fill="none" stroke="#8b5cf6" stroke-opacity="0.18" stroke-width="1"/>
<circle cx="1200" cy="0" r="40" fill="none" stroke="#3b82f6" stroke-opacity="0.22" stroke-width="1"/>
<circle cx="-240" cy="240" r="80" fill="none" stroke="#8b5cf6" stroke-opacity="0.18" stroke-width="1"/>
<circle cx="-240" cy="240" r="40" fill="none" stroke="#3b82f6" stroke-opacity="0.22" stroke-width="1"/>
<circle cx="0" cy="240" r="80" fill="none" stroke="#8b5cf6" stroke-opacity="0.18" stroke-width="1"/>
<circle cx="0" cy="240" r="40" fill="none" stroke="#3b82f6" stroke-opacity="0.22" stroke-width="1"/>
<circle cx="240" cy="240" r="80" fill="none" stroke="#8b5cf6" stroke-opacity="0.18" stroke-width="1"/>
<circle cx="240" cy="240" r="40" fill="none" stroke="#3b82f6" stroke-opacity="0.22" stroke-width="1"/>
<circle cx="480" cy="240" r="80" fill="none" stroke="#8b5cf6" stroke-opacity="0.18" stroke-width="1"/>
<circle cx="480" cy="240" r="40" fill="none" stroke="#3b82f6" stroke-opacity="0.22" stroke-width="1"/>
<circle cx="720" cy="240" r="80" fill="none" stroke="#8b5cf6" stroke-opacity="0.18" stroke-width="1"/>
<circle cx="720" cy="240" r="40" fill="none" stroke="#3b82f6" stroke-opacity="0.22" stroke-width="1"/>
<circle cx="960" cy="240" r="80" fill="none" stroke="#8b5cf6" stroke-opacity="0.18" stroke-width="1"/>
<circle cx="960" cy="240" r="40" fill="none" stroke="#3b82f6" stroke-opacity="0.22" stroke-width="1"/>
<circle cx="1200" cy="240" r="80" fill="none" stroke="#8b5cf6" stroke-opacity="0.18" stroke-width="1"/>
<circle cx="1200" cy="240" r="40" fill="none" stroke="#3b82f6" stroke-opacity="0.22" stroke-width="1"/>
<circle cx="-240" cy="480" r="80" fill="none" stroke="#8b5cf6" stroke-opacity="0.18" stroke-width="1"/>
<circle cx="-240" cy="480" r="40" fill="none" stroke="#3b82f6" stroke-opacity="0.22" stroke-width="1"/>
<circle cx="0" cy="480" r="80" fill="none" stroke="#8b5cf6" stroke-opacity="0.18" stroke-width="1"/>
<circle cx="0" cy="480" r="40" fill="none" stroke="#3b82f6" stroke-opacity="0.22" stroke-width="1"/>
<circle cx="240" cy="480" r="80" fill="none" stroke="#8b5cf6" stroke-opacity="0.18" stroke-width="1"/>
<circle cx="240" cy="480" r="40" fill="none" stroke="#3b82f6" stroke-opacity="0.22" stroke-width="1"/>
<circle cx="480" cy="480" r="80" fill="none" stroke="#8b5cf6" stroke-opacity="0.18" stroke-width="1"/>
<circle cx="480" cy="480" r="40" fill="none" stroke="#3b82f6" stroke-opacity="0.22" stroke-width="1"/>
<circle cx="720" cy="480" r="80" fill="none" stroke="#8b5cf6" stroke-opacity="0.18" stroke-width="1"/>
<circle cx="720" cy="480" r="40" fill="none" stroke="#3b82f6" stroke-opacity="0.22" stroke-width="1"/>
<circle cx="960" cy="480" r="80" fill="none" stroke="#8b5cf6" stroke-opacity="0.18" stroke-width="1"/>
<circle cx="960" cy="480" r="40" fill="none" stroke="#3b82f6" stroke-opacity="0.22" stroke-width="1"/>
<circle cx="1200" cy="480" r="80" fill="none" stroke="#8b5cf6" stroke-opacity="0.18" stroke-width="1"/>
<circle cx="1200" cy="480" r="40" fill="none" stroke="#3b82f6" stroke-opacity="0.22" stroke-width="1"/>
<circle cx="-240" cy="720" r="80" fill="none" stroke="#8b5cf6" stroke-opacity="0.18" stroke-width="1"/>
<circle cx="-240" cy="720" r="40" fill="none" stroke="#3b82f6" stroke-opacity="0.22" stroke-width="1"/>
<circle cx="0" cy="720" r="80" fill="none" stroke="#8b5cf6" stroke-opacity="0.18" stroke-width="1"/>
<circle cx="0" cy="720" r="40" fill="none" stroke="#3b82f6" stroke-opacity="0.22" stroke-width="1"/>
<circle cx="240" cy="720" r="80" fill="none" stroke="#8b5cf6" stroke-opacity="0.18" stroke-width="1"/>
<circle cx="240" cy="720" r="40" fill="none" stroke="#3b82f6" stroke-opacity="0.22" stroke-width="1"/>
<circle cx="480" cy="720" r="80" fill="none" stroke="#8b5cf6" stroke-opacity="0.18" stroke-width="1"/>
<circle cx="480" cy="720" r="40" fill="none" stroke="#3b82f6" stroke-opacity="0.22" stroke-width="1"/>
<circle cx="720" cy="720" r="80" fill="none" stroke="#8b5cf6" stroke-opacity="0.18" stroke-width="1"/>
<circle cx="720" cy="720" r="40" fill="none" stroke="#3b82f6" stroke-opacity="0.22" stroke-width="1"/>
<circle cx="960" cy="720" r="80" fill="none" stroke="#8b5cf6" stroke-opacity="0.18" stroke-width="1"/>
<circle cx="960" cy="720" r="40" fill="none" stroke="#3b82f6" stroke-opacity="0.22" stroke-width="1"/>
<circle cx="1200" cy="720" r="80" fill="none" stroke="#8b5cf6" stroke-opacity="0.18" stroke-width="1"/>
<circle cx="1200" cy="720" r="40" fill="none" stroke="#3b82f6" stroke-opacity="0.22" stroke-width="1"/>
<circle cx="-240" cy="960" r="80" fill="none" stroke="#8b5cf6" stroke-opacity="0.18" stroke-width="1"/>
<circle cx="-240" cy="960" r="40" fill="none" stroke="#3b82f6" stroke-opacity="0.22" stroke-width="1"/>
<circle cx="0" cy="960" r="80" fill="none" stroke="#8b5cf6" stroke-opacity="0.18" stroke-width="1"/>
<circle cx="0" cy="960" r="40" fill="none" stroke="#3b82f6" stroke-opacity="0.22" stroke-width="1"/>
<circle cx="240" cy="960" r="80" fill="none" stroke="#8b5cf6" stroke-opacity="0.18" stroke-width="1"/>
<circle cx="240" cy="960" r="40" fill="none" stroke="#3b82f6" stroke-opacity="0.22" stroke-width="1"/>
<circle cx="480" cy="960" r="80" fill="none" stroke="#8b5cf6" stroke-opacity="0.18" stroke-width="1"/>
<circle cx="480" cy="960" r="40" fill="none" stroke="#3b82f6" stroke-opacity="0.22" stroke-width="1"/>
<circle cx="720" cy="960" r="80" fill="none" stroke="#8b5cf6" stroke-opacity="0.18" stroke-width="1"/>
<circle cx="720" cy="960" r="40" fill="none" stroke="#3b82f6" stroke-opacity="0.22" stroke-width="1"/>
<circle cx="960" cy="960" r="80" fill="none" stroke="#8b5cf6" stroke-opacity="0.18" stroke-width="1"/>
<circle cx="960" cy="960" r="40" fill="none" stroke="#3b82f6" stroke-opacity="0.22" stroke-width="1"/>
<circle cx="1200" cy="960" r="80" fill="none" stroke="#8b5cf6" stroke-opacity="0.18" stroke-width="1"/>
<circle cx="1200" cy="960" r="40" fill="none" stroke="#3b82f6" stroke-opacity="0.22" stroke-width="1"/>
<circle cx="-240" cy="1200" r="80" fill="none" stroke="#8b5cf6" stroke-opacity="0.18" stroke-width="1"/>
<circle cx="-240" cy="1200" r="40" fill="none" stroke="#3b82f6" stroke-opacity="0.22" stroke-width="1"/>
<circle cx="0" cy="1200" r="80" fill="none" stroke="#8b5cf6" stroke-opacity="0.18" stroke-width="1"/>
<circle cx="0" cy="1200" r="40" fill="none" stroke="#3b82f6" stroke-opacity="0.22" stroke-width="1"/>
<circle cx="240" cy="1200" r="80" fill="none" stroke="#8b5cf6" stroke-opacity="0.18" stroke-width="1"/>
<circle cx="240" cy="1200" r="40" fill="none" stroke="#3b82f6" stroke-opacity="0.22" stroke-width="1"/>
<circle cx="480" cy="1200" r="80" fill="none" stroke="#8b5cf6" stroke-opacity="0.18" stroke-width="1"/>
<circle cx="480" cy="1200" r="40" fill="none" stroke="#3b82f6" stroke-opacity="0.22" stroke-width="1"/>
<circle cx="720" cy="1200" r="80" fill="none" stroke="#8b5cf6" stroke-opacity="0.18" stroke-width="1"/>
<circle cx="720" cy="1200" r="40" fill="none" stroke="#3b82f6" stroke-opacity="0.22" stroke-width="1"/>
<circle cx="960" cy="1200" r="80" fill="none" stroke="#8b5cf6" stroke-opacity="0.18" stroke-width="1"/>
<circle cx="960" cy="1200" r="40" fill="none" stroke="#3b82f6" stroke-opacity="0.22" stroke-width="1"/>
<circle cx="1200" cy="1200" r="80" fill="none" stroke="#8b5cf6" stroke-opacity="0.18" stroke-width="1"/>
<circle cx="1200" cy="1200" r="40" fill="none" stroke="#3b82f6" stroke-opacity="0.22" stroke-width="1"/>
<circle cx="-240" cy="1440" r="80" fill="none" stroke="#8b5cf6" stroke-opacity="0.18" stroke-width="1"/>
<circle cx="-240" cy="1440" r="40" fill="none" stroke="#3b82f6" stroke-opacity="0.22" stroke-width="1"/>
<circle cx="0" cy="1440" r="80" fill="none" stroke="#8b5cf6" stroke-opacity="0.18" stroke-width="1"/>
<circle cx="0" cy="1440" r="40" fill="none" stroke="#3b82f6" stroke-opacity="0.22" stroke-width="1"/>
<circle cx="240" cy="1440" r="80" fill="none" stroke="#8b5cf6" stroke-opacity="0.18" stroke-width="1"/>
<circle cx="240" cy="1440" r="40" fill="none" stroke="#3b82f6" stroke-opacity="0.22" stroke-width="1"/>
<circle cx="480" cy="1440" r="80" fill="none" stroke="#8b5cf6" stroke-opacity="0.18" stroke-width="1"/>
<circle cx="480" cy="1440" r="40" fill="none" stroke="#3b82f6" stroke-opacity="0.22" stroke-width="1"/>
<circle cx="720" cy="1440" r="80" fill="none" stroke="#8b5cf6" stroke-opacity="0.18" stroke-width="1"/>
<circle cx="720" cy="1440" r="40" fill="none" stroke="#3b82f6" stroke-opacity="0.22" stroke-width="1"/>
<circle cx="960" cy="1440" r="80" fill="none" stroke="#8b5cf6" stroke-opacity="0.18" stroke-width="1"/>
<circle cx="960" cy="1440" r="40" fill="none" stroke="#3b82f6" stroke-opacity="0.22" stroke-width="1"/>
<circle cx="1200" cy="1440" r="80" fill="none" stroke="#8b5cf6" stroke-opacity="0.18" stroke-width="1"/>
<circle cx="1200" cy="1440" r="40" fill="none" stroke="#3b82f6" stroke-opacity="0.22" stroke-width="1"/>
<circle cx="-240" cy="1680" r="80" fill="none" stroke="#8b5cf6" stroke-opacity="0.18" stroke-width="1"/>
<circle cx="-240" cy="1680" r="40" fill="none" stroke="#3b82f6" stroke-opacity="0.22" stroke-width="1"/>
<circle cx="0" cy="1680" r="80" fill="none" stroke="#8b5cf6" stroke-opacity="0.18" stroke-width="1"/>
<circle cx="0" cy="1680" r="40" fill="none" stroke="#3b82f6" stroke-opacity="0.22" stroke-width="1"/>
<circle cx="240" cy="1680" r="80" fill="none" stroke="#8b5cf6" stroke-opacity="0.18" stroke-width="1"/>
<circle cx="240" cy="1680" r="40" fill="none" stroke="#3b82f6" stroke-opacity="0.22" stroke-width="1"/>
<circle cx="480" cy="1680" r="80" fill="none" stroke="#8b5cf6" stroke-opacity="0.18" stroke-width="1"/>
<circle cx="480" cy="1680" r="40" fill="none" stroke="#3b82f6" stroke-opacity="0.22" stroke-width="1"/>
<circle cx="720" cy="1680" r="80" fill="none" stroke="#8b5cf6" stroke-opacity="0.18" stroke-width="1"/>
<circle cx="720" cy="1680" r="40" fill="none" stroke="#3b82f6" stroke-opacity="0.22" stroke-width="1"/>
<circle cx="960" cy="1680" r="80" fill="none" stroke="#8b5cf6" stroke-opacity="0.18" stroke-width="1"/>
<circle cx="960" cy="1680" r="40" fill="none" stroke="#3b82f6" stroke-opacity="0.22" stroke-width="1"/>
<circle cx="1200" cy="1680" r="80" fill="none" stroke="#8b5cf6" stroke-opacity="0.18" stroke-width="1"/>
<circle cx="1200" cy="1680" r="40" fill="none" stroke="#3b82f6" stroke-opacity="0.22" stroke-width="1"/>
<circle cx="-240" cy="1920" r="80" fill="none" stroke="#8b5cf6" stroke-opacity="0.18" stroke-width="1"/>
<circle cx="-240" cy="1920" r="40" fill="none" stroke="#3b82f6" stroke-opacity="0.22" stroke-width="1"/>
<circle cx="0" cy="1920" r="80" fill="none" stroke="#8b5cf6" stroke-opacity="0.18" stroke-width="1"/>
<circle cx="0" cy="1920" r="40" fill="none" stroke="#3b82f6" stroke-opacity="0.22" stroke-width="1"/>
<circle cx="240" cy="1920" r="80" fill="none" stroke="#8b5cf6" stroke-opacity="0.18" stroke-width="1"/>
<circle cx="240" cy="1920" r="40" fill="none" stroke="#3b82f6" stroke-opacity="0.22" stroke-width="1"/>
<circle cx="480" cy="1920" r="80" fill="none" stroke="#8b5cf6" stroke-opacity="0.18" stroke-width="1"/>
<circle cx="480" cy="1920" r="40" fill="none" stroke="#3b82f6" stroke-opacity="0.22" stroke-width="1"/>
<circle cx="720" cy="1920" r="80" fill="none" stroke="#8b5cf6" stroke-opacity="0.18" stroke-width="1"/>
<circle cx="720" cy="1920" r="40" fill="none" stroke="#3b82f6" stroke-opacity="0.22" stroke-width="1"/>
<circle cx="960" cy="1920" r="80" fill="none" stroke="#8b5cf6" stroke-opacity="0.18" stroke-width="1"/>
<circle cx="960" cy="1920" r="40" fill="none" stroke="#3b82f6" stroke-opacity="0.22" stroke-width="1"/>
<circle cx="1200" cy="1920" r="80" fill="none" stroke="#8b5cf6" stroke-opacity="0.18" stroke-width="1"/>
<circle cx="1200" cy="1920" r="40" fill="none" stroke="#3b82f6" stroke-opacity="0.22" stroke-width="1"/>
</svg>