<svg xmlns="http://www.w3.org/2000/svg" width="2000" height="2000" viewBox="0 0 2000 2000">
<circle cx="-300" cy="-300" r="100" fill="none" stroke="#8b5cf6" stroke-opacity="0.18" stroke-width="1"/>
<circle cx="-300" cy="-300" r="50" fill="none" stroke="#3b82f6" stroke-opacity="0.22" stroke-width="1"/>
<circle cx="0" cy="-300" r="100" fill="none" stroke="#8b5cf6" stroke-opacity="0.18" stroke-width="1"/>
<circle cx="0" cy="-300" r="50" fill="none" stroke="#3b82f6" stroke-opacity="0.22" stroke-width="1"/>
<circle cx="300" cy="-300" r="100" fill="none" stroke="#8b5cf6" stroke-opacity="0.18" stroke-width="1"/>
<circle cx="300" cy="-300" r="50" fill="none" stroke="#3b82f6" stroke-opacity="0.22" stroke-width="1"/>
<circle cx="600" cy="-300" r="100" fill="none" stroke="#8b5cf6" stroke-opacity="0.18" stroke-width="1"/>
<circle cx="600" cy="-300" r="50" fill="none" stroke="#3b82f6" stroke-opacity="0.22" stroke-width="1"/>
<circle cx="900" cy="-300" r="100" fill="none" stroke="#8b5cf6" stroke-opacity="0.18" stroke-width="1"/>
<circle cx="900" cy="-300" r="50" fill="none" stroke="#3b82f6" stroke-opacity="0.22" stroke-width="1"/>
<circle cx="1200" cy="-300" r="100" fill="none" stroke="#8b5cf6" stroke-opacity="0.18" stroke-width="1"/>
<circle cx="1200" cy="-300" r="50" fill="none" stroke="#3b82f6" stroke-opacity="0.22" stroke-width="1"/>
<circle cx="1500" cy="-300" r="100" fill="none" stroke="#8b5cf6" stroke-opacity="0.18" stroke-width="1"/>
<circle cx="1500" cy="-300" r="50" fill="none" stroke="#3b82f6" stroke-opacity="0.22" stroke-width="1"/>
<circle cx="1800" cy="-300" r="100" fill="none" stroke="#8b5cf6" stroke-opacity="0.18" stroke-width="1"/>
<circle cx="1800" cy="-300" r="50" fill="none" stroke="#3b82f6" stroke-opacity="0.22" stroke-width="1"/>
<circle cx="2100" cy="-300" r="100" fill="none" stroke="#8b5cf6" stroke-opacity="0.18" stroke-width="1"/>
<circle cx="2100" cy="-300" r="50" fill="none" stroke="#3b82f6" stroke-opacity="0.22" stroke-width="1"/>
<circle cx="-300" cy="0" r="100" fill="none" stroke="#8b5cf6" stroke-opacity="0.18" stroke-width="1"/>
<circle cx="-300" cy="0" r="50" fill="none" stroke="#3b82f6" stroke-opacity="0.22" stroke-width="1"/>
<circle cx="0" cy="0" r="100" fill="none" stroke="#8b5cf6" stroke-opacity="0.18" stroke-width="1"/>
<circle cx="0" cy="0" r="50" fill="none" stroke="#3b82f6" stroke-opacity="0.22" stroke-width="1"/>
<circle cx="300" cy="0" r="100" fill="none" stroke="#8b5cf6" stroke-opacity="0.18" stroke-width="1"/>
<circle cx="300" cy="0" r="50" fill="none" stroke="#3b82f6" stroke-opacity="0.22" stroke-width="1"/>
<circle cx="600" cy="0" r="100" fill="none" stroke="#8b5cf6" stroke-opacity="0.18" stroke-width="1"/>
<circle cx="600" cy="0" r="50" fill="none" stroke="#3b82f6" stroke-opacity="0.22" stroke-width="1"/>
<circle cx="900" cy="0" r="100" fill="none" stroke="#8b5cf6" stroke-opacity="0.18" stroke-width="1"/>
<circle cx="900" cy="0" r="50" fill="none" stroke="#3b82f6" stroke-opacity="0.22" stroke-width="1"/>
<circle cx="1200" cy="0" r="100" fill="none" stroke="#8b5cf6" stroke-opacity="0.18" stroke-width="1"/>
<circle cx="1200" cy="0" r="50" fill="none" stroke="#3b82f6" stroke-opacity="0.22" stroke-width="1"/>
<circle cx="1500" cy="0" r="100" fill="none" stroke="#8b5cf6" stroke-opacity="0.18" stroke-width="1"/>
<circle cx="1500" cy="0" r="50" fill="none" stroke="#3b82f6" stroke-opacity="0.22" stroke-width="1"/>
<circle cx="1800" cy="0" r="100" fill="none" stroke="#8b5cf6" stroke-opacity="0.18" stroke-width="1"/>
<circle cx="1800" cy="0" r="50" fill="none" stroke="#3b82f6" stroke-opacity="0.22" stroke-width="1"/>
<circle cx="2100" cy="0" r="100" fill="none" stroke="#8b5cf6" stroke-opacity="0.18" stroke-width="1"/>
<circle cx="2100" cy="0" r="50" fill="none" stroke="#3b82f6" stroke-opacity="0.22" stroke-width="1"/>
<circle cx="-300" cy="300" r="100" fill="none" stroke="#8b5cf6" stroke-opacity="0.18" stroke-width="1"/>
<circle cx="-300" cy="300" r="50" fill="none" stroke="#3b82f6" stroke-opacity="0.22" stroke-width="1"/>
<circle cx="0" cy="300" r="100" fill="none" stroke="#8b5cf6" stroke-opacity="0.18" stroke-width="1"/>
<circle cx="0" cy="300" r="50" fill="none" stroke="#3b82f6" stroke-opacity="0.22" stroke-width="1"/>
<circle cx="300" cy="300" r="100" fill="none" stroke="#8b5cf6" stroke-opacity="0.18" stroke-width="1"/>
<circle cx="300" cy="300" r="50" fill="none" stroke="#3b82f6" stroke-opacity="0.22" stroke-width="1"/>
<circle cx="600" cy="300" r="100" fill="none" stroke="#8b5cf6" stroke-opacity="0.18" stroke-width="1"/>
<circle cx="600" cy="300" r="50" fill="none" stroke="#3b82f6" stroke-opacity="0.22" stroke-width="1"/>
<circle cx="900" cy="300" r="100" fill="none" stroke="#8b5cf6" stroke-opacity="0.18" stroke-width="1"/>
<circle cx="900" cy="300" r="50" fill="none" stroke="#3b82f6" stroke-opacity="0.22" stroke-width="1"/>
<circle cx="1200" cy="300" r="100" fill="none" stroke="#8b5cf6" stroke-opacity="0.18" stroke-width="1"/>
<circle cx="1200" cy="300" r="50" fill="none" stroke="#3b82f6" stroke-opacity="0.22" stroke-width="1"/>
<circle cx="1500" cy="300" r="100" fill="none" stroke="#8b5cf6" stroke-opacity="0.18" stroke-width="1"/>
<circle cx="1500" cy="300" r="50" fill="none" stroke="#3b82f6" stroke-opacity="0.22" stroke-width="1"/>
<circle cx="1800" cy="300" r="100" fill="none" stroke="#8b5cf6" stroke-opacity="0.18" stroke-width="1"/>
<circle cx="1800" cy="300" r="50" fill="none" stroke="#3b82f6" stroke-opacity="0.22" stroke-width="1"/>
<circle cx="2100" cy="300" r="100" fill="none" stroke="#8b5cf6" stroke-opacity="0.18" stroke-width="1"/>
<circle cx="2100" cy="300" r="50" fill="none" stroke="#3b82f6" stroke-opacity="0.22" stroke-width="1"/>
<circle cx="-300" cy="600" r="100" fill="none" stroke="#8b5cf6" stroke-opacity="0.18" stroke-width="1"/>
<circle cx="-300" cy="600" r="50" fill="none" stroke="#3b82f6" stroke-opacity="0.22" stroke-width="1"/>
<circle cx="0" cy="600" r="100" fill="none" stroke="#8b5cf6" stroke-opacity="0.18" stroke-width="1"/>
<circle cx="0" cy="600" r="50" fill="none" stroke="#3b82f6" stroke-opacity="0.22" stroke-width="1"/>
<circle cx="300" cy="600" r="100" fill="none" stroke="#8b5cf6" stroke-opacity="0.18" stroke-width="1"/>
<circle cx="300" cy="600" r="50" fill="none" stroke="#3b82f6" stroke-opacity="0.22" stroke-width="1"/>
<circle cx="600" cy="600" r="100" fill="none" stroke="#8b5cf6" stroke-opacity="0.18" stroke-width="1"/>
<circle cx="600" cy="600" r="50" fill="none" stroke="#3b82f6" stroke-opacity="0.22" stroke-width="1"/>
<circle cx="900" cy="600" r="100" fill="none" stroke="#8b5cf6" stroke-opacity="0.18" stroke-width="1"/>
<circle cx="900" cy="600" r="50" fill="none" stroke="#3b82f6" stroke-opacity="0.22" stroke-width="1"/>
<circle cx="1200" cy="600" r="100" fill="none" stroke="#8b5cf6" stroke-opacity="0.18" stroke-width="1"/>
<circle cx="1200" cy="600" r="50" fill="none" stroke="#3b82f6" stroke-opacity="0.22" stroke-width="1"/>
<circle cx="1500" cy="600" r="100" fill="none" stroke="#8b5cf6" stroke-opacity="0.18" stroke-width="1"/>
<circle cx="1500" cy="600" r="50" fill="none" stroke="#3b82f6" stroke-opacity="0.22" stroke-width="1"/>
<circle cx="1800" cy="600" r="100" fill="none" stroke="#8b5cf6" stroke-opacity="0.18" stroke-width="1"/>
<circle cx="1800" cy="600" r="50" fill="none" stroke="#3b82f6" stroke-opacity="0.22" stroke-width="1"/>
<circle cx="2100" cy="600" r="100" fill="none" stroke="#8b5cf6" stroke-opacity="0.18" stroke-width="1"/>
<circle cx="2100" cy="600" r="50" fill="none" stroke="#3b82f6" stroke-opacity="0.22" stroke-width="1"/>
<circle cx="-300" cy="900" r="100" fill="none" stroke="#8b5cf6" stroke-opacity="0.18" stroke-width="1"/>
<circle cx="-300" cy="900" r="50" fill="none" stroke="#3b82f6" stroke-opacity="0.22" stroke-width="1"/>
<circle cx="0" cy="900" r="100" fill="none" stroke="#8b5cf6" stroke-opacity="0.18" stroke-width="1"/>
<circle cx="0" cy="900" r="50" fill="none" stroke="#3b82f6" stroke-opacity="0.22" stroke-width="1"/>
<circle cx="300" cy="900" r="100" fill="none" stroke="#8b5cf6" stroke-opacity="0.18" stroke-width="1"/>
<circle cx="300" cy="900" r="50" fill="none" stroke="#3b82f6" stroke-opacity="0.22" stroke-width="1"/>
<circle cx="600" cy="900" r="100" fill="none" stroke="#8b5cf6" stroke-opacity="0.18" stroke-width="1"/>
<circle cx="600" cy="900" r="50" fill="none" stroke="#3b82f6" stroke-opacity="0.22" stroke-width="1"/>
<circle cx="900" cy="900" r="100" fill="none" stroke="#8b5cf6" stroke-opacity="0.18" stroke-width="1"/>
<circle cx="900" cy="900" r="50" fill="none" stroke="#3b82f6" stroke-opacity="0.22" stroke-width="1"/>
<circle cx="1200" cy="900" r="100" fill="none" stroke="#8b5cf6" stroke-opacity="0.18" stroke-width="1"/>
<circle cx="1200" cy="900" r="50" fill="none" stroke="#3b82f6" stroke-opacity="0.22" stroke-width="1"/>
<circle cx="1500" cy="900" r="100" fill="none" stroke="#8b5cf6" stroke-opacity="0.18" stroke-width="1"/>
<circle cx="1500" cy="900" r="50" fill="none" stroke="#3b82f6" stroke-opacity="0.22" stroke-width="1"/>
<circle cx="1800" cy="900" r="100" fill="none" stroke="#8b5cf6" stroke-opacity="0.18" stroke-width="1"/>
<circle cx="1800" cy="900" r="50" fill="none" stroke="#3b82f6" stroke-opacity="0.22" stroke-width="1"/>
<circle cx="2100" cy="900" r="100" fill="none" stroke="#8b5cf6" stroke-opacity="0.18" stroke-width="1"/>
<circle cx="2100" cy="900" r="50" fill="none" stroke="#3b82f6" stroke-opacity="0.22" stroke-width="1"/>
<circle cx="-300" cy="1200" r="100" fill="none" stroke="#8b5cf6" stroke-opacity="0.18" stroke-width="1"/>
<circle cx="-300" cy="1200" r="50" fill="none" stroke="#3b82f6" stroke-opacity="0.22" stroke-width="1"/>
<circle cx="0" cy="1200" r="100" fill="none" stroke="#8b5cf6" stroke-opacity="0.18" stroke-width="1"/>
<circle cx="0" cy="1200" r="50" fill="none" stroke="#3b82f6" stroke-opacity="0.22" stroke-width="1"/>
<circle cx="300" cy="1200" r="100" fill="none" stroke="#8b5cf6" stroke-opacity="0.18" stroke-width="1"/>
<circle cx="300" cy="1200" r="50" fill="none" stroke="#3b82f6" stroke-opacity="0.22" stroke-width="1"/>
<circle cx="600" cy="1200" r="100" fill="none" stroke="#8b5cf6" stroke-opacity="0.18" stroke-width="1"/>
<circle cx="600" cy="1200" r="50" fill="none" stroke="#3b82f6" stroke-opacity="0.22" stroke-width="1"/>
<circle cx="900" cy="1200" r="100" fill="none" stroke="#8b5cf6" stroke-opacity="0.18" stroke-width="1"/>
<circle cx="900" cy="1200" r="50" fill="none" stroke="#3b82f6" stroke-opacity="0.22" stroke-width="1"/>
<circle cx="1200" cy="1200" r="100" fill="none" stroke="#8b5cf6" stroke-opacity="0.18" stroke-width="1"/>
<circle cx="1200" cy="1200" r="50" fill="none" stroke="#3b82f6" stroke-opacity="0.22" stroke-width="1"/>
<circle cx="1500" cy="1200" r="100" fill="none" stroke="#8b5cf6" stroke-opacity="0.18" stroke-width="1"/>
<circle cx="1500" cy="1200" r="50" fill="none" stroke="#3b82f6" stroke-opacity="0.22" stroke-width="1"/>
<circle cx="1800" cy="1200" r="100" fill="none" stroke="#8b5cf6" stroke-opacity="0.18" stroke-width="1"/>
<circle cx="1800" cy="1200" r="50" fill="none" stroke="#3b82f6" stroke-opacity="0.22" stroke-width="1"/>
<circle cx="2100" cy="1200" r="100" fill="none" stroke="#8b5cf6" stroke-opacity="0.18" stroke-width="1"/>
<circle cx="2100" cy="1200" r="50" fill="none" stroke="#3b82f6" stroke-opacity="0.22" stroke-width="1"/>
<circle cx="-300" cy="1500" r="100" fill="none" stroke="#8b5cf6" stroke-opacity="0.18" stroke-width="1"/>
<circle cx="-300" cy="1500" r="50" fill="none" stroke="#3b82f6" stroke-opacity="0.22" stroke-width="1"/>
<circle cx="0" cy="1500" r="100" fill="none" stroke="#8b5cf6" stroke-opacity="0.18" stroke-width="1"/>
<circle cx="0" cy="1500" r="50" fill="none" stroke="#3b82f6" stroke-opacity="0.22" stroke-width="1"/>
<circle cx="300" cy="1500" r="100" fill="none" stroke="#8b5cf6" stroke-opacity="0.18" stroke-width="1"/>
<circle cx="300" cy="1500" r="50" fill="none" stroke="#3b82f6" stroke-opacity="0.22" stroke-width="1"/>
<circle cx="600" cy="1500" r="100" fill="none" stroke="#8b5cf6" stroke-opacity="0.18" stroke-width="1"/>
<circle cx="600" cy="1500" r="50" fill="none" stroke="#3b82f6" stroke-opacity="0.22" stroke-width="1"/>
<circle cx="900" cy="1500" r="100" fill="none" stroke="#8b5cf6" stroke-opacity="0.18" stroke-width="1"/>
<circle cx="900" cy="1500" r="50" fill="none" stroke="#3b82f6" stroke-opacity="0.22" stroke-width="1"/>
<circle cx="1200" cy="1500" r="100" fill="none" stroke="#8b5cf6" stroke-opacity="0.18" stroke-width="1"/>
<circle cx="1200" cy="1500" r="50" fill="none" stroke="#3b82f6" stroke-opacity="0.22" stroke-width="1"/>
<circle cx="1500" cy="1500" r="100" fill="none" stroke="#8b5cf6" stroke-opacity="0.18" stroke-width="1"/>
<circle cx="1500" cy="1500" r="50" fill="none" stroke="#3b82f6" stroke-opacity="0.22" stroke-width="1"/>
<circle cx="1800" cy="1500" r="100" fill="none" stroke="#8b5cf6" stroke-opacity="0.18" stroke-width="1"/>
<circle cx="1800" cy="1500" r="50" fill="none" stroke="#3b82f6" stroke-opacity="0.22" stroke-width="1"/>
<circle cx="2100" cy="1500" r="100" fill="none" stroke="#8b5cf6" stroke-opacity="0.18" stroke-width="1"/>
<circle cx="2100" cy="1500" r="50" fill="none" stroke="#3b82f6" stroke-opacity="0.22" stroke-width="1"/>
<circle cx="-300" cy="1800" r="100" fill="none" stroke="#8b5cf6" stroke-opacity="0.18" stroke-width="1"/>
<circle cx="-300" cy="1800" r="50" fill="none" stroke="#3b82f6" stroke-opacity="0.22" stroke-width="1"/>
<circle cx="0" cy="1800" r="100" fill="none" stroke="#8b5cf6" stroke-opacity="0.18" stroke-width="1"/>
<circle cx="0" cy="1800" r="50" fill="none" stroke="#3b82f6" stroke-opacity="0.22" stroke-width="1"/>
<circle cx="300" cy="1800" r="100" fill="none" stroke="#8b5cf6" stroke-opacity="0.18" stroke-width="1"/>
<circle cx="300" cy="1800" r="50" fill="none" stroke="#3b82f6" stroke-opacity="0.22" stroke-width="1"/>
<circle cx="600" cy="1800" r="100" fill="none" stroke="#8b5cf6" stroke-opacity="0.18" stroke-width="1"/>
<circle cx="600" cy="1800" r="50" fill="none" stroke="#3b82f6" stroke-opacity="0.22" stroke-width="1"/>
<circle cx="900" cy="1800" r="100" fill="none" stroke="#8b5cf6" stroke-opacity="0.18" stroke-width="1"/>
<circle cx="900" cy="1800" r="50" fill="none" stroke="#3b82f6" stroke-opacity="0.22" stroke-width="1"/>
<circle cx="1200" cy="1800" r="100" fill="none" stroke="#8b5cf6" stroke-opacity="0.18" stroke-width="1"/>
<circle cx="1200" cy="1800" r="50" fill="none" stroke="#3b82f6" stroke-opacity="0.22" stroke-width="1"/>
<circle cx="1500" cy="1800" r="100" fill="none" stroke="#8b5cf6" stroke-opacity="0.18" stroke-width="1"/>
<circle cx="1500" cy="1800" r="50" fill="none" stroke="#3b82f6" stroke-opacity="0.22" stroke-width="1"/>
<circle cx="1800" cy="1800" r="100" fill="none" stroke="#8b5cf6" stroke-opacity="0.18" stroke-width="1"/>
<circle cx="1800" cy="1800" r="50" fill="none" stroke="#3b82f6" stroke-opacity="0.22" stroke-width="1"/>
<circle cx="2100" cy="1800" r="100" fill="none" stroke="#8b5cf6" stroke-opacity="0.18" stroke-width="1"/>
<circle cx="2100" cy="1800" r="50" fill="none" stroke="#3b82f6" stroke-opacity="0.22" stroke-width="1"/>
<circle cx="-300" cy="2100" r="100" fill="none" stroke="#8b5cf6" stroke-opacity="0.18" stroke-width="1"/>
<circle cx="-300" cy="2100" r="50" fill="none" stroke="#3b82f6" stroke-opacity="0.22" stroke-width="1"/>
<circle cx="0" cy="2100" r="100" fill="none" stroke="#8b5cf6" stroke-opacity="0.18" stroke-width="1"/>
<circle cx="0" cy="2100" r="50" fill="none" stroke="#3b82f6" stroke-opacity="0.22" stroke-width="1"/>
<circle cx="300" cy="2100" r="100" fill="none" stroke="#8b5cf6" stroke-opacity="0.18" stroke-width="1"/>
<circle cx="300" cy="2100" r="50" fill="none" stroke="#3b82f6" stroke-opacity="0.22" stroke-width="1"/>
<circle cx="600" cy="2100" r="100" fill="none" stroke="#8b5cf6" stroke-opacity="0.18" stroke-width="1"/>
<circle cx="600" cy="2100" r="50" fill="none" stroke="#3b82f6" stroke-opacity="0.22" stroke-width="1"/>
<circle cx="900" cy="2100" r="100" fill="none" stroke="#8b5cf6" stroke-opacity="0.18" stroke-width="1"/>
<circle cx="900" cy="2100" r="50" fill="none" stroke="#3b82f6" stroke-opacity="0.22" stroke-width="1"/>
<circle cx="1200" cy="2100" r="100" fill="none" stroke="#8b5cf6" stroke-opacity="0.18" stroke-width="1"/>
<circle cx="1200" cy="2100" r="50" fill="none" stroke="#3b82f6" stroke-opacity="0.22" stroke-width="1"/>
<circle cx="1500" cy="2100" r="100" fill="none" stroke="#8b5cf6" stroke-opacity="0.18" stroke-width="1"/>
<circle cx="1500" cy="2100" r="50" fill="none" stroke="#3b82f6" stroke-opacity="0.22" stroke-width="1"/>
<circle cx="1800" cy="2100" r="100" fill="none" stroke="#8b5cf6" stroke-opacity="0.18" stroke-width="1"/>
<circle cx="1800" cy="2100" r="50" fill="none" stroke="#3b82f6" stroke-opacity="0.22" stroke-width="1"/>
<circle cx="2100" cy="2100" r="100" fill="none" stroke="#8b5cf6" stroke-opacity="0.18" stroke-width="1"/>
<circle cx="2100" cy="2100" r="50" fill="none" stroke="#3b82f6" stroke-opacity="0.22" stroke-width="1"/>
</svg>